  0
SECTION
  2
HEADER
  9
$MEASUREMENT
  70
  1
  9
$INSUNITS
  70
  4
  0
ENDSEC
  0
SECTION
  2
TABLES
  0
TABLE
  2
LTYPE
 70
     1
  0
LTYPE
  2
CONTINUOUS
 70
    64
  3
Ausgezogene Linie
 72
    65
 73
     0
 40
0.0
  0
ENDTAB
  0
TABLE
  2
LAYER
 70
     3
  0
LAYER
  2
Contour
 70
    64
 62
     7
  6
CONTINUOUS
  0
LAYER
  2
Engraving
 70
    64
 62
     7
  6
CONTINUOUS
  0
LAYER
  2
Reference_points
 70
    64
 62
     1
  6
CONTINUOUS
  0
ENDTAB
  0
TABLE
  2
STYLE
 70
     1
  0
STYLE
  2
TXT
 70
    64
 40
0.0
 41
1.0
 50
0.0
 71
     0
 42
3.500000
  3
TXT
  0
ENDTAB
  0
ENDSEC
  0
SECTION
  2
BLOCKS
  0
ENDSEC
  0
SECTION
  2
ENTITIES
  0
LINE
  8
Contour
 62
   7
 39
0.100
  6
CONTINUOUS
 10
19.98000
 20
128.40000
 30
 0
 11
19.98000
 21
0.00000
  0
LINE
  8
Contour
 62
   7
 39
0.100
  6
CONTINUOUS
 10
19.98000
 20
0.00000
 30
 0
 11
0.00000
 21
0.00000
  0
LINE
  8
Contour
 62
   7
 39
0.100
  6
CONTINUOUS
 10
0.00000
 20
0.00000
 30
 0
 11
0.00000
 21
128.40000
  0
LINE
  8
Contour
 62
   7
 39
0.100
  6
CONTINUOUS
 10
0.00000
 20
128.40000
 30
 0
 11
19.98000
 21
128.40000
  0
ARC
  8
Contour
 62
   7
 39
0.100
  6
CONTINUOUS
 10
2.79000
 20
14.70000
 30
 0
 40
0.50000
 50
180.00000
 51
270.00000
  0
LINE
  8
Contour
 62
   7
 39
0.100
  6
CONTINUOUS
 10
2.79000
 20
14.20000
 30
 0
 11
3.39000
 21
14.20000
  0
ARC
  8
Contour
 62
   7
 39
0.100
  6
CONTINUOUS
 10
3.39000
 20
14.70000
 30
 0
 40
0.50000
 50
270.00000
 51
360.00000
  0
LINE
  8
Contour
 62
   7
 39
0.100
  6
CONTINUOUS
 10
3.89000
 20
14.70000
 30
 0
 11
3.89000
 21
113.70000
  0
ARC
  8
Contour
 62
   7
 39
0.100
  6
CONTINUOUS
 10
3.39000
 20
113.70000
 30
 0
 40
0.50000
 50
0.00000
 51
90.00000
  0
LINE
  8
Contour
 62
   7
 39
0.100
  6
CONTINUOUS
 10
3.39000
 20
114.20000
 30
 0
 11
2.79000
 21
114.20000
  0
ARC
  8
Contour
 62
   7
 39
0.100
  6
CONTINUOUS
 10
2.79000
 20
113.70000
 30
 0
 40
0.50000
 50
90.00000
 51
180.00000
  0
LINE
  8
Contour
 62
   7
 39
0.100
  6
CONTINUOUS
 10
2.29000
 20
113.70000
 30
 0
 11
2.29000
 21
14.70000
  0
ARC
  8
Contour
 62
   7
 39
0.100
  6
CONTINUOUS
 10
2.49000
 20
37.70000
 30
 0
 40
1.50000
 50
180.00000
 51
270.00000
  0
LINE
  8
Contour
 62
   7
 39
0.100
  6
CONTINUOUS
 10
2.49000
 20
36.20000
 30
 0
 11
17.49000
 21
36.20000
  0
ARC
  8
Contour
 62
   7
 39
0.100
  6
CONTINUOUS
 10
17.49000
 20
37.70000
 30
 0
 40
1.50000
 50
270.00000
 51
360.00000
  0
LINE
  8
Contour
 62
   7
 39
0.100
  6
CONTINUOUS
 10
18.99000
 20
37.70000
 30
 0
 11
18.99000
 21
95.70000
  0
ARC
  8
Contour
 62
   7
 39
0.100
  6
CONTINUOUS
 10
17.49000
 20
95.70000
 30
 0
 40
1.50000
 50
0.00000
 51
90.00000
  0
LINE
  8
Contour
 62
   7
 39
0.100
  6
CONTINUOUS
 10
17.49000
 20
97.20000
 30
 0
 11
2.49000
 21
97.20000
  0
ARC
  8
Contour
 62
   7
 39
0.100
  6
CONTINUOUS
 10
2.49000
 20
95.70000
 30
 0
 40
1.50000
 50
90.00000
 51
180.00000
  0
LINE
  8
Contour
 62
   7
 39
0.100
  6
CONTINUOUS
 10
0.99000
 20
95.70000
 30
 0
 11
0.99000
 21
37.70000
  0
ARC
  8
Contour
 62
   7
 39
0.100
  6
CONTINUOUS
 10
7.99000
 20
97.20000
 30
 0
 40
1.50000
 50
180.00000
 51
270.00000
  0
LINE
  8
Contour
 62
   7
 39
0.100
  6
CONTINUOUS
 10
7.99000
 20
95.70000
 30
 0
 11
11.99000
 21
95.70000
  0
ARC
  8
Contour
 62
   7
 39
0.100
  6
CONTINUOUS
 10
11.99000
 20
97.20000
 30
 0
 40
1.50000
 50
270.00000
 51
360.00000
  0
LINE
  8
Contour
 62
   7
 39
0.100
  6
CONTINUOUS
 10
13.49000
 20
97.20000
 30
 0
 11
13.49000
 21
103.20000
  0
ARC
  8
Contour
 62
   7
 39
0.100
  6
CONTINUOUS
 10
11.99000
 20
103.20000
 30
 0
 40
1.50000
 50
0.00000
 51
90.00000
  0
LINE
  8
Contour
 62
   7
 39
0.100
  6
CONTINUOUS
 10
11.99000
 20
104.70000
 30
 0
 11
7.99000
 21
104.70000
  0
ARC
  8
Contour
 62
   7
 39
0.100
  6
CONTINUOUS
 10
7.99000
 20
103.20000
 30
 0
 40
1.50000
 50
90.00000
 51
180.00000
  0
LINE
  8
Contour
 62
   7
 39
0.100
  6
CONTINUOUS
 10
6.49000
 20
103.20000
 30
 0
 11
6.49000
 21
97.20000
  0
ARC
  8
Contour
 62
   7
 39
0.100
  6
CONTINUOUS
 10
17.49000
 20
36.70000
 30
 0
 40
1.50000
 50
180.00000
 51
270.00000
  0
LINE
  8
Contour
 62
   7
 39
0.100
  6
CONTINUOUS
 10
17.49000
 20
35.20000
 30
 0
 11
17.49000
 21
35.20000
  0
ARC
  8
Contour
 62
   7
 39
0.100
  6
CONTINUOUS
 10
17.49000
 20
36.70000
 30
 0
 40
1.50000
 50
270.00000
 51
360.00000
  0
LINE
  8
Contour
 62
   7
 39
0.100
  6
CONTINUOUS
 10
18.99000
 20
36.70000
 30
 0
 11
18.99000
 21
37.70000
  0
ARC
  8
Contour
 62
   7
 39
0.100
  6
CONTINUOUS
 10
17.49000
 20
37.70000
 30
 0
 40
1.50000
 50
0.00000
 51
90.00000
  0
LINE
  8
Contour
 62
   7
 39
0.100
  6
CONTINUOUS
 10
17.49000
 20
39.20000
 30
 0
 11
17.49000
 21
39.20000
  0
ARC
  8
Contour
 62
   7
 39
0.100
  6
CONTINUOUS
 10
17.49000
 20
37.70000
 30
 0
 40
1.50000
 50
90.00000
 51
180.00000
  0
LINE
  8
Contour
 62
   7
 39
0.100
  6
CONTINUOUS
 10
15.99000
 20
37.70000
 30
 0
 11
15.99000
 21
36.70000
  0
ARC
  8
Contour
 62
   7
 39
0.100
  6
CONTINUOUS
 10
2.49000
 20
36.70000
 30
 0
 40
1.50000
 50
180.00000
 51
270.00000
  0
LINE
  8
Contour
 62
   7
 39
0.100
  6
CONTINUOUS
 10
2.49000
 20
35.20000
 30
 0
 11
2.49000
 21
35.20000
  0
ARC
  8
Contour
 62
   7
 39
0.100
  6
CONTINUOUS
 10
2.49000
 20
36.70000
 30
 0
 40
1.50000
 50
270.00000
 51
360.00000
  0
LINE
  8
Contour
 62
   7
 39
0.100
  6
CONTINUOUS
 10
3.99000
 20
36.70000
 30
 0
 11
3.99000
 21
37.70000
  0
ARC
  8
Contour
 62
   7
 39
0.100
  6
CONTINUOUS
 10
2.49000
 20
37.70000
 30
 0
 40
1.50000
 50
0.00000
 51
90.00000
  0
LINE
  8
Contour
 62
   7
 39
0.100
  6
CONTINUOUS
 10
2.49000
 20
39.20000
 30
 0
 11
2.49000
 21
39.20000
  0
ARC
  8
Contour
 62
   7
 39
0.100
  6
CONTINUOUS
 10
2.49000
 20
37.70000
 30
 0
 40
1.50000
 50
90.00000
 51
180.00000
  0
LINE
  8
Contour
 62
   7
 39
0.100
  6
CONTINUOUS
 10
0.99000
 20
37.70000
 30
 0
 11
0.99000
 21
36.70000
  0
ARC
  8
Contour
 62
   7
 39
0.100
  6
CONTINUOUS
 10
2.49000
 20
95.70000
 30
 0
 40
1.50000
 50
180.00000
 51
270.00000
  0
LINE
  8
Contour
 62
   7
 39
0.100
  6
CONTINUOUS
 10
2.49000
 20
94.20000
 30
 0
 11
2.49000
 21
94.20000
  0
ARC
  8
Contour
 62
   7
 39
0.100
  6
CONTINUOUS
 10
2.49000
 20
95.70000
 30
 0
 40
1.50000
 50
270.00000
 51
360.00000
  0
LINE
  8
Contour
 62
   7
 39
0.100
  6
CONTINUOUS
 10
3.99000
 20
95.70000
 30
 0
 11
3.99000
 21
96.70000
  0
ARC
  8
Contour
 62
   7
 39
0.100
  6
CONTINUOUS
 10
2.49000
 20
96.70000
 30
 0
 40
1.50000
 50
0.00000
 51
90.00000
  0
LINE
  8
Contour
 62
   7
 39
0.100
  6
CONTINUOUS
 10
2.49000
 20
98.20000
 30
 0
 11
2.49000
 21
98.20000
  0
ARC
  8
Contour
 62
   7
 39
0.100
  6
CONTINUOUS
 10
2.49000
 20
96.70000
 30
 0
 40
1.50000
 50
90.00000
 51
180.00000
  0
LINE
  8
Contour
 62
   7
 39
0.100
  6
CONTINUOUS
 10
0.99000
 20
96.70000
 30
 0
 11
0.99000
 21
95.70000
  0
ARC
  8
Contour
 62
   7
 39
0.100
  6
CONTINUOUS
 10
17.49000
 20
95.70000
 30
 0
 40
1.50000
 50
180.00000
 51
270.00000
  0
LINE
  8
Contour
 62
   7
 39
0.100
  6
CONTINUOUS
 10
17.49000
 20
94.20000
 30
 0
 11
17.49000
 21
94.20000
  0
ARC
  8
Contour
 62
   7
 39
0.100
  6
CONTINUOUS
 10
17.49000
 20
95.70000
 30
 0
 40
1.50000
 50
270.00000
 51
360.00000
  0
LINE
  8
Contour
 62
   7
 39
0.100
  6
CONTINUOUS
 10
18.99000
 20
95.70000
 30
 0
 11
18.99000
 21
96.70000
  0
ARC
  8
Contour
 62
   7
 39
0.100
  6
CONTINUOUS
 10
17.49000
 20
96.70000
 30
 0
 40
1.50000
 50
0.00000
 51
90.00000
  0
LINE
  8
Contour
 62
   7
 39
0.100
  6
CONTINUOUS
 10
17.49000
 20
98.20000
 30
 0
 11
17.49000
 21
98.20000
  0
ARC
  8
Contour
 62
   7
 39
0.100
  6
CONTINUOUS
 10
17.49000
 20
96.70000
 30
 0
 40
1.50000
 50
90.00000
 51
180.00000
  0
LINE
  8
Contour
 62
   7
 39
0.100
  6
CONTINUOUS
 10
15.99000
 20
96.70000
 30
 0
 11
15.99000
 21
95.70000
  0
CIRCLE
  8
Contour
 62
   7
 39
0.100
  6
CONTINUOUS
 10
3.50000
 20
122.10000
 30
 0
 40
1.50000
  0
CIRCLE
  8
Contour
 62
   7
 39
0.100
  6
CONTINUOUS
 10
12.53000
 20
14.70000
 30
 0
 40
2.70000
  0
CIRCLE
  8
Contour
 62
   7
 39
0.100
  6
CONTINUOUS
 10
12.53000
 20
14.70000
 30
 0
 40
1.45000
  0
CIRCLE
  8
Contour
 62
   7
 39
0.100
  6
CONTINUOUS
 10
12.53000
 20
14.70000
 30
 0
 40
2.70000
  0
CIRCLE
  8
Contour
 62
   7
 39
0.100
  6
CONTINUOUS
 10
12.53000
 20
14.70000
 30
 0
 40
1.45000
  0
CIRCLE
  8
Contour
 62
   7
 39
0.100
  6
CONTINUOUS
 10
7.45000
 20
113.70000
 30
 0
 40
2.70000
  0
CIRCLE
  8
Contour
 62
   7
 39
0.100
  6
CONTINUOUS
 10
7.45000
 20
113.70000
 30
 0
 40
1.45000
  0
CIRCLE
  8
Contour
 62
   7
 39
0.100
  6
CONTINUOUS
 10
7.45000
 20
113.70000
 30
 0
 40
2.70000
  0
CIRCLE
  8
Contour
 62
   7
 39
0.100
  6
CONTINUOUS
 10
7.45000
 20
113.70000
 30
 0
 40
1.45000
  0
ARC
  8
Contour
 62
   7
 39
0.100
  6
CONTINUOUS
 10
4.13000
 20
4.70000
 30
 0
 40
0.50000
 50
180.00000
 51
270.00000
  0
LINE
  8
Contour
 62
   7
 39
0.100
  6
CONTINUOUS
 10
4.13000
 20
4.20000
 30
 0
 11
7.03000
 21
4.20000
  0
ARC
  8
Contour
 62
   7
 39
0.100
  6
CONTINUOUS
 10
7.03000
 20
4.70000
 30
 0
 40
0.50000
 50
270.00000
 51
360.00000
  0
LINE
  8
Contour
 62
   7
 39
0.100
  6
CONTINUOUS
 10
7.53000
 20
4.70000
 30
 0
 11
7.53000
 21
18.30000
  0
ARC
  8
Contour
 62
   7
 39
0.100
  6
CONTINUOUS
 10
7.03000
 20
18.30000
 30
 0
 40
0.50000
 50
0.00000
 51
90.00000
  0
LINE
  8
Contour
 62
   7
 39
0.100
  6
CONTINUOUS
 10
7.03000
 20
18.80000
 30
 0
 11
4.13000
 21
18.80000
  0
ARC
  8
Contour
 62
   7
 39
0.100
  6
CONTINUOUS
 10
4.13000
 20
18.30000
 30
 0
 40
0.50000
 50
90.00000
 51
180.00000
  0
LINE
  8
Contour
 62
   7
 39
0.100
  6
CONTINUOUS
 10
3.63000
 20
18.30000
 30
 0
 11
3.63000
 21
4.70000
  0
ARC
  8
Contour
 62
   7
 39
0.100
  6
CONTINUOUS
 10
12.53000
 20
3.00000
 30
 0
 40
2.95030
 50
152.00177
 51
207.99823
  0
ARC
  8
Contour
 62
   7
 39
0.100
  6
CONTINUOUS
 10
10.36633
 20
1.85000
 30
 0
 40
0.50000
 50
208.03424
 51
270.07638
  0
LINE
  8
Contour
 62
   7
 39
0.100
  6
CONTINUOUS
 10
10.36700
 20
1.35000
 30
 0
 11
14.69300
 21
1.35000
  0
ARC
  8
Contour
 62
   7
 39
0.100
  6
CONTINUOUS
 10
14.69367
 20
1.85000
 30
 0
 40
0.50000
 50
269.92362
 51
331.96576
  0
ARC
  8
Contour
 62
   7
 39
0.100
  6
CONTINUOUS
 10
12.53000
 20
3.00000
 30
 0
 40
2.95030
 50
332.00177
 51
387.99823
  0
ARC
  8
Contour
 62
   7
 39
0.100
  6
CONTINUOUS
 10
14.69367
 20
4.15000
 30
 0
 40
0.50000
 50
28.03424
 51
90.07638
  0
LINE
  8
Contour
 62
   7
 39
0.100
  6
CONTINUOUS
 10
14.69300
 20
4.65000
 30
 0
 11
10.36700
 21
4.65000
  0
ARC
  8
Contour
 62
   7
 39
0.100
  6
CONTINUOUS
 10
10.36633
 20
4.15000
 30
 0
 40
0.50000
 50
89.92362
 51
151.96576
  0
ARC
  8
Contour
 62
   7
 39
0.100
  6
CONTINUOUS
 10
7.45000
 20
125.40000
 30
 0
 40
2.95030
 50
152.00177
 51
207.99823
  0
ARC
  8
Contour
 62
   7
 39
0.100
  6
CONTINUOUS
 10
5.28633
 20
124.25000
 30
 0
 40
0.50000
 50
208.03424
 51
270.07638
  0
LINE
  8
Contour
 62
   7
 39
0.100
  6
CONTINUOUS
 10
5.28700
 20
123.75000
 30
 0
 11
9.61300
 21
123.75000
  0
ARC
  8
Contour
 62
   7
 39
0.100
  6
CONTINUOUS
 10
9.61367
 20
124.25000
 30
 0
 40
0.50000
 50
269.92362
 51
331.96576
  0
ARC
  8
Contour
 62
   7
 39
0.100
  6
CONTINUOUS
 10
7.45000
 20
125.40000
 30
 0
 40
2.95030
 50
332.00177
 51
387.99823
  0
ARC
  8
Contour
 62
   7
 39
0.100
  6
CONTINUOUS
 10
9.61367
 20
126.55000
 30
 0
 40
0.50000
 50
28.03424
 51
90.07638
  0
LINE
  8
Contour
 62
   7
 39
0.100
  6
CONTINUOUS
 10
9.61300
 20
127.05000
 30
 0
 11
5.28700
 21
127.05000
  0
ARC
  8
Contour
 62
   7
 39
0.100
  6
CONTINUOUS
 10
5.28633
 20
126.55000
 30
 0
 40
0.50000
 50
89.92362
 51
151.96576
  0
ARC
  8
Contour
 62
   7
 39
0.100
  6
CONTINUOUS
 10
5.24000
 20
40.20000
 30
 0
 40
1.50000
 50
180.00000
 51
270.00000
  0
LINE
  8
Contour
 62
   7
 39
0.100
  6
CONTINUOUS
 10
5.24000
 20
38.70000
 30
 0
 11
14.74000
 21
38.70000
  0
ARC
  8
Contour
 62
   7
 39
0.100
  6
CONTINUOUS
 10
14.74000
 20
40.20000
 30
 0
 40
1.50000
 50
270.00000
 51
360.00000
  0
LINE
  8
Contour
 62
   7
 39
0.100
  6
CONTINUOUS
 10
16.24000
 20
40.20000
 30
 0
 11
16.24000
 21
88.20000
  0
ARC
  8
Contour
 62
   7
 39
0.100
  6
CONTINUOUS
 10
14.74000
 20
88.20000
 30
 0
 40
1.50000
 50
0.00000
 51
90.00000
  0
LINE
  8
Contour
 62
   7
 39
0.100
  6
CONTINUOUS
 10
14.74000
 20
89.70000
 30
 0
 11
5.24000
 21
89.70000
  0
ARC
  8
Contour
 62
   7
 39
0.100
  6
CONTINUOUS
 10
5.24000
 20
88.20000
 30
 0
 40
1.50000
 50
90.00000
 51
180.00000
  0
LINE
  8
Contour
 62
   7
 39
0.100
  6
CONTINUOUS
 10
3.74000
 20
88.20000
 30
 0
 11
3.74000
 21
40.20000
  0
ARC
  8
Contour
 62
   7
 39
0.100
  6
CONTINUOUS
 10
5.15000
 20
28.85000
 30
 0
 40
1.35000
 50
180.00000
 51
270.00000
  0
LINE
  8
Contour
 62
   7
 39
0.100
  6
CONTINUOUS
 10
5.15000
 20
27.50000
 30
 0
 11
11.65000
 21
27.50000
  0
ARC
  8
Contour
 62
   7
 39
0.100
  6
CONTINUOUS
 10
11.65000
 20
28.85000
 30
 0
 40
1.35000
 50
270.00000
 51
360.00000
  0
LINE
  8
Contour
 62
   7
 39
0.100
  6
CONTINUOUS
 10
13.00000
 20
28.85000
 30
 0
 11
13.00000
 21
29.55000
  0
ARC
  8
Contour
 62
   7
 39
0.100
  6
CONTINUOUS
 10
11.65000
 20
29.55000
 30
 0
 40
1.35000
 50
0.00000
 51
90.00000
  0
LINE
  8
Contour
 62
   7
 39
0.100
  6
CONTINUOUS
 10
11.65000
 20
30.90000
 30
 0
 11
5.15000
 21
30.90000
  0
ARC
  8
Contour
 62
   7
 39
0.100
  6
CONTINUOUS
 10
5.15000
 20
29.55000
 30
 0
 40
1.35000
 50
90.00000
 51
180.00000
  0
LINE
  8
Contour
 62
   7
 39
0.100
  6
CONTINUOUS
 10
3.80000
 20
29.55000
 30
 0
 11
3.80000
 21
28.85000
  0
ENDSEC
  0
EOF
