M48
;Layer_Color=9474304
;FILE_FORMAT=4:4
METRIC,LZ
;TYPE=PLATED
T1F00S00C0.2500
T2F00S00C0.3000
T3F00S00C0.7112
T4F00S00C0.8900
T5F00S00C1.0000
T7F00S00C1.0200
T8F00S00C1.6300
T9F00S00C1.9400
T10F00S00C2.0000
T11F00S00C2.6000
%
T01
X-00308997Y-00398522
X-00301998
Y-00391522
X-0030902Y-00391544
X-00297998Y-00377722
X-0029029Y-00377462
X-00269Y-00379
Y-00412
X-00105798Y-00398522
X-0010582Y-00391544
X-00098798Y-00391522
Y-00398522
X-00094798Y-00377722
X-0008709Y-00377462
X-000658Y-00379
Y-00412
X-00017Y-00486
Y-00494
X-00011Y-00513294
Y-00521
X-00003
Y-00513
X00005
Y-00521
X-004722Y-00412
Y-00379
X-0049349Y-00377462
X-00501198Y-00377722
X-00505197Y-00391522
Y-00398522
X-00512197
X-0051222Y-00391544
X-006754Y-00379
X-0069669Y-00377462
X-00704398Y-00377722
X-00708398Y-00391522
Y-00398522
X-00715397
X-0071542Y-00391544
X-006754Y-00412
X-008786
Y-00379
X-0089989Y-00377462
X-00907598Y-00377722
X-00911598Y-00391522
Y-00398522
X-00918597
X-0091862Y-00391544
X-010818Y-00379
X-0110309Y-00377462
X-01110798Y-00377722
X-01114798Y-00391522
Y-00398522
X-01121797
X-0112182Y-00391544
X-010818Y-00412
X-01285
X-01285Y-00379
X-0130629Y-00377462
X-01313998Y-00377722
X-01317997Y-00391522
Y-00398522
X-01324998
X-0132502Y-00391544
X-0127Y-00455
X-01262
X-01262Y-00513
Y-00521
X-0127
Y-00513
X-01278
Y-00521
X-0125696Y-0035597
X-012492Y-00362462
X-0121
Y-003
X-01243Y-0028404
X-01237Y-00277535
X-012349Y-002413
Y-002159
Y-001905
Y-001651
X-01273
Y-001905
Y-002159
X-0128242Y-0022098
Y-0021082
Y-0023622
Y-0024638
X-01291Y-002413
X-01273
X-0129825Y-00229
X-0131125Y-0024913
X-0130475Y-0025656
X-01317997Y-00266522
Y-00273522
X-01324998
X-0132502Y-00266544
X-01322875Y-00243475
X-0133Y-00289864
X-01311582Y-00296
X-01304872Y-00289864
X-01263Y-00303
X-0125696Y-0030911
X-01255Y-00320034
X-012875Y-0033254
X-0132399Y-0033004
X-01324Y-00351
X-0133Y-00359699
X-01331466Y-00374017
X-01313998Y-00368627
X-0129967Y-0019558
Y-0018542
Y-0017018
Y-0016002
X-01287484Y-0003
X-0128Y-00018337
Y-0001
X-01288732
X-0128675Y0
X-01288732Y0001
X-0128
Y00018337
X-0124195Y0001
X-0123458Y0001508
Y0000492
Y-0000492
Y-0001508
X-0124195Y-0001
X-01242Y-0003
X-01195Y-00061
Y-00069
X-01175Y-00053975
X-01182262Y-00009403
X-0118Y0
X-0112Y00017701
X-01113Y00011
X-01105Y00005
X-01094Y00013
X-01088Y-00005
Y-00015
Y-00025
X-01112
X-0111397Y-0001447
X-01130226Y-000375
X-01160161Y-00062774
X-0109647Y-0016002
Y-0017018
Y-0018542
Y-0019558
X-010698Y-001905
Y-001651
X-010317
Y-001905
Y-002159
Y-002413
X-010698
X-0107922Y-0023622
Y-0024638
X-010878Y-002413
X-0109505Y-00229
X-0107922Y-0022098
Y-0021082
X-010698Y-002159
X-0110805Y-0024913
X-0110155Y-0025656
X-01114798Y-00266522
Y-00273522
X-01121797
X-0112182Y-00266544
X-01119675Y-00243475
X-01135035Y-00290232
X-01108382Y-00296
X-01101672Y-00289864
X-010598Y-00303
X-0105376Y-0030911
X-010518Y-00320034
X-0105376Y-0035597
X-01046Y-00362462
X-010068
Y-003
X-010398Y-0028404
X-010338Y-00277535
X-010843Y-0033254
X-01129Y-00324
X-011208Y-00351
X-011268Y-00359699
X-01128266Y-00374017
X-01110798Y-00368627
X-00925066Y-00374017
X-009236Y-00359699
X-009176Y-00352
X-00907598Y-00368627
X-008811Y-0033254
X-008486Y-00320034
X-0085056Y-0030911
X-008566Y-00303
X-008366Y-0028404
X-008306Y-00277535
X-008285Y-002413
Y-002159
Y-001905
Y-001651
X-008666
Y-001905
Y-002159
X-0087602Y-0022098
Y-0021082
Y-0023622
Y-0024638
X-008846Y-002413
X-008666
X-0089185Y-00229
X-0090485Y-0024913
X-0089835Y-0025656
X-00911598Y-00266522
Y-00273522
X-00918597
X-0091862Y-00266544
X-00916475Y-00243475
X-00931835Y-00290232
X-00905182Y-00296
X-00898472Y-00289864
X-009258Y-00324
X-0085056Y-0035597
X-008428Y-00362462
X-008036
Y-003
X-0089327Y-0019558
Y-0018542
Y-0017018
Y-0016002
X-00875Y-00008
Y0
X-00781Y-00045
X-00775Y-00075
X-00979
X-00985Y-00039
X-01015Y00007
Y00015
X-0067Y0001
Y00002
X-00576782Y-0005134
X-00570586Y-00075
X-00489Y-00033
Y-00025
X-0044Y-0002
Y-0003
Y00007
X-00415
X-00381Y-0004
X-00451Y-00057
X-00445Y-00075
X-004602Y-001651
Y-001905
Y-002159
X-0046962Y-0022098
Y-0021082
Y-0023622
Y-0024638
X-004782Y-002413
X-004602
X-0048545Y-00229
X-0049845Y-0024913
X-0049195Y-0025656
X-00505197Y-00266522
Y-00273522
X-00512197
X-0051222Y-00266544
X-00510075Y-00243475
X-00525435Y-00290232
X-00498782Y-00296
X-00492072Y-00289864
X-004502Y-00303
X-0044416Y-0030911
X-004422Y-00320034
X-0044416Y-0035597
X-004364Y-00362462
X-003972
Y-003
X-004302Y-0028404
X-004242Y-00277535
X-004221Y-002413
Y-002159
Y-001905
Y-001651
X-0048687Y-0016002
Y-0017018
Y-0018542
Y-0019558
X-006253Y-001905
Y-001651
X-006634
Y-001905
Y-002159
X-0067282Y-0022098
Y-0021082
Y-0023622
Y-0024638
X-006814Y-002413
X-006634
X-0068865Y-00229
X-0070165Y-0024913
X-0069515Y-0025656
X-00708398Y-00266522
Y-00273522
X-00715397
X-0071542Y-00266544
X-00713275Y-00243475
X-00728635Y-00290232
X-00701982Y-00296
X-00695272Y-00289864
X-006534Y-00303
X-0064736Y-0030911
X-006454Y-00320034
X-0064736Y-0035597
X-006396Y-00362462
X-006004
Y-003
X-006334Y-0028404
X-006274Y-00277535
X-006253Y-002413
Y-002159
X-0069007Y-0019558
Y-0018542
Y-0017018
Y-0016002
X-006779Y-0033254
X-007226Y-00324
X-007144Y-00352
X-007204Y-00359699
X-00721866Y-00374017
X-00704398Y-00368627
X-00518666Y-00374017
X-005172Y-00359699
X-005112Y-00352
X-00501198Y-00368627
X-004747Y-0033254
X-005194Y-00324
X-003162
X-00316Y-00334
X-00308Y-00352
X-00314Y-00359699
X-00315466Y-00374017
X-00297998Y-00368627
X-002715Y-0033254
X-00239Y-00320034
X-0024096Y-0030911
X-00247Y-00303
X-00227Y-0028404
X-00221Y-00277535
X-002189Y-002413
Y-002159
Y-001905
Y-001651
X-00257
Y-001905
Y-002159
X-0026642Y-0022098
Y-0021082
Y-0023622
Y-0024638
X-00275Y-002413
X-00257
X-0028225Y-00229
X-0029525Y-0024913
X-0028875Y-0025656
X-00301998Y-00266522
Y-00273522
X-00308997
X-0030902Y-00266544
X-00306875Y-00243475
X-00322235Y-00290232
X-00295582Y-00296
X-00288872Y-00289864
X-0028367Y-0019558
Y-0018542
Y-0017018
Y-0016002
X-00303Y-00051
X-00297Y-00042
X-00323732Y-00039999
X-00348Y-0004
X-00357
X-003525Y000175
X-00287Y0001
Y0
X-00247
Y0001
X-00247Y0002
X-00263
X-00223
X-00239Y-000205
Y-0003
Y-000395
X-00263Y-0004
X-00263Y-0003
Y-0002
X-00204Y-00018
Y-00042
X-00231Y-00063
X-00225Y-00075
X-00096Y-00069
X-00102Y-00058
X-00108Y-00018
X-0009Y-00006
X-00084Y0
X-00075Y-00018
X-0003847Y-0002492
Y-0003508
X-000311Y-0003
Y-0001
Y0001
X00007Y0001
Y00018337
X00015732Y0001
X0001375Y0
X00015732Y-0001
X00007
Y-00018337
X00014483Y-0003
X-000157Y-001651
Y-001905
Y-002159
Y-002413
X-000538
X-0006322Y-0023622
Y-0024638
X-000718Y-002413
X-0007905Y-00229
X-0006322Y-0022098
Y-0021082
X-000538Y-002159
Y-001905
Y-001651
X-0008047Y-0016002
Y-0017018
Y-0018542
Y-0019558
X-0009205Y-0024913
X-0008555Y-0025656
X-00098798Y-00266522
Y-00273522
X-00105798
X-0010582Y-00266544
X-00103675Y-00243475
X-00119035Y-00290232
X-00092382Y-00296
X-00085672Y-00289864
X-000438Y-00303
X-0003776Y-0030911
X-000358Y-00320034
X-0003776Y-0035597
X-0003Y-00362462
X000092
Y-003
X-000238Y-0028404
X-000178Y-00277535
X-000683Y-0033254
X-00113Y-00336
Y-00324
X-001048Y-00351
X-001108Y-00359699
X-00112266Y-00374017
X-00094798Y-00368627
X-00194Y-00362462
X-002332
X-0024096Y-0035597
X-00194Y-003
X0006Y0015
X-000157Y001905
X-0005395
X-00047Y0017
Y0016
X-00072Y00129
X-00078Y00121
X-00072Y00114
X-00078Y00099
X-00108Y00102
X-00127Y00099
Y00107
X-00096Y0012
Y00132
X-00102001Y00156001
X-00091Y00198
X-00081Y00206
Y00226
X-00078Y00239
X-00081Y00257
Y00277
X-00078Y0029
X-00102
X-00108Y00272
X-00102Y00239
X-00108Y00221
X-00158Y00216
X-00166
X-00174
X-00184Y00206
Y002
Y00194
X-00185Y0018596
X-00183Y0017
Y0016
X-00207
Y0017
X-00236Y001715
Y001585
X-00254Y00165
X-00276Y001715
Y001585
X-00293Y00158
X-003
Y00165
X-00293
Y00172
X-003
X-00307
Y00165
Y00158
X-003022Y00197538
X-00311803Y00198
X-00338Y00182
X-00359293Y00182539
X-00367001Y00182279
Y00191374
X-00352Y00152
X-00355Y00106
X-00355Y00082237
X-00322Y0008
X-00298
X-00287Y0005
Y0004
X-00288Y00027
X-00319Y0003
Y0004
X-00263
Y0005
Y0006
Y0007
X-00247Y0006
Y0005
X-00223Y0006
X-00223Y0007
X-0021Y00072
Y00064
X-00223Y0004
X-00238Y00194
X-00248Y00216
X-00256
X-00264
X-00219
X-00211
X-00203
X-00195
X-00185Y0024496
X-00184Y00253
Y00259
Y00265
X-00174Y00275
X-00166
X-00158
X-00161Y0024496
Y0018596
X-00195Y00275
X-00203
X-00211
X-00219
X-00248
X-00256
X-00264
X-00291Y0027
X-00297Y00276
X-003Y00286
X-00293
Y00293
Y003
X-003
Y00293
X-00307
Y003
X-00307Y00286
X-00311803Y00257
X-00303Y00256
Y0023496
X-00340503Y0022746
X-00364Y00258
X-00362Y00354
X-003525
X-0031Y003605
X-00238Y00253
X-00114Y00309
X-00095Y00332
X-0009475Y00358079
X-00088Y00352
X-0007525
X-00066Y00357
Y00336
X-0005395Y003429
X-0005405Y003683
X-0006Y00378
X-00057Y00408
X-00069
X-00075Y00402
X-00095
X-00114Y00402
X-00108Y00384
X-00095Y00378
X-00045Y00402
X-000178Y0038545
X-000157Y003683
Y003429
X-000178Y0032455
X-000157Y002921
X-00035Y002735
X-00035Y002655
Y002225
Y002145
X-0005395Y002413
X-000157
X-0005395Y002921
X-00045Y00308
X-000678Y003152
X-0003847Y0003508
Y0002492
X-000311Y0003
X00014483Y0003
X-00416Y00038
X-0044
X-00433Y00076
X-00422Y0008
Y0007
X-00398
Y0008
X-00388Y00074
X-00398Y00105
X-00422
X-00433Y00104
X-00447Y00156
Y00164
Y00172
X-00505Y00173
Y00165
Y00157
X-00518
Y00165
Y00173
X-00568
Y00165
Y00157
X-00576Y0012
X-00582Y00126
X-00588Y0012
X-00594Y00126
X-006Y0012
X-00606Y00126
X-00612Y0012
X-00618Y00126
X-00552Y00208
X-00543Y00202
X-00536Y00208
X-0055Y00228
X-00552Y0024
Y00252
Y00264
X-0054
X-00528
X-00516
X-00498Y00246
X-00486
X-00474
Y00234
X-00486
X-00498
X-0045
X-0044
Y00246
X-0045
X-00414
Y00234
X-0039Y00233
X-00376993Y0022996
X-00377003Y00208
X-00383003Y00200301
X-00372Y00165
X-00383Y00255
X-0038Y003605
X-004225Y00354
X-00432
X-0045Y003605
X-004925Y00354
X-00502
X-0054Y00378
X-00546Y00384
X-00534Y00396
X-0056Y00322
X-00696Y00392
X-00738Y004042
X-00768Y0041
X-00792Y004
Y0039
Y0038
Y0037
Y0036
Y0035
Y0034
Y0033
Y0032
X-0080545Y0033
X-00822Y0032
Y0034
X-00816Y0036
X-00853014Y00325
X-0089Y0033
Y0034
Y0035
Y0036
Y0037
Y0038
Y0032
X-008532Y0027625
Y0026875
Y0026125
Y0025375
Y0024125
Y0023375
Y0022625
Y0021875
X-00865Y00208
X-0087875Y002082
X-0088625
X-0089875
X-0090625
X-0093Y00208
X-0094875Y002082
X-0095625
X-0096375
X-0097125
X-00985Y00208
X-0100375Y002082
X-0101125
X-0101875
X-0102625
X-01045Y00208
X-0106875Y002082
X-0107625
X-0108875
X-0109625
X-0111Y00208
X-011218Y0021875
Y0022625
Y0023375
Y0024125
Y0025375
Y0026125
Y0026875
Y0027625
X-01151616Y00285
X-01153Y00265
X-01153Y00245
X-01153407Y00215
X-01115Y00177
X-01105
Y00153
X-01115
X-01045
X-01035
Y00177
X-01045
X-01015
X-009975
X-009775
X-0096Y00177
X-0094Y00177
X-0093
X-0093Y00153
X-0094
X-009775
X-009875
X-009975
X-0087
X-0086
X-0086Y00177
X-0087
X-00801Y00194
X-00771
Y00178
X-00809998Y00149797
X-00821593Y00215
X-00806Y0022625
X-00797Y00235
Y00245
X-00822
X-00822Y00265
X-00822Y00285
X-00796884
X-00984Y00374
X-0099Y00384
X-01098Y00414
X-011238Y0041
X-01124Y00359969
X-01152935
X-01153Y0034
Y00325
X-01121986
X-01176934
Y0034
Y00359969
X-0116745Y00389995
X-0119655
X-01177616Y00285
X-01178Y00245
Y00235
X-01169Y0022625
X-01174Y00204
X-011705Y0019
X-0117Y00156
X-01176Y0015
X-01182Y00144
X-01188Y00138
X-01194Y00132
X-012Y00126
X-01206Y0012
X-01212Y00114
X-01266
X-0129Y0012
X-01284Y00126
X-01278Y00132
X-01296Y0015
X-01302Y00156
X-01308Y00144
X-01314Y00138
X-01287484Y0003
X-01242
X-01194Y00168
X-01177Y0045
Y0049
Y005
X-01244
Y0049
X-01255
Y005
Y0051
Y0052
Y0053
Y0054
Y0055
Y0056
X-01244
Y0055
Y0054
Y0053
Y0052
Y0051
X-01266
Y005
Y0049
X-01277
Y005
Y0051
Y0052
Y0053
Y0054
Y0055
Y0056
X-01266
Y0055
Y0054
Y0053
Y0052
X-01153Y0048
X-0111Y004788
X-01106Y00508
X-01075
X-01075Y00532
X-01085
X-01045
X-01005
X-01005Y00508
X-0101Y00478861
X-0096
Y00508
X-0096Y00532
X-0097
X-00935
X-00865
X-00855
X-00855Y00508
X-00865
X-0087Y0048
X-00878Y0047
X-00878999Y00438
X-0087Y00432
X-00864Y00426
X-00858Y0042
X-008512Y00425
X-0087Y0042
X-00822Y0042
X-008222Y00435
Y00445
X-00795Y00445
Y00435
X-00798Y0042
X-00798Y004605
Y0047
Y004795
X-00807172Y00495
X-00783
X-0077Y0047
Y004605
X-00768Y00445
Y00435
X-00795Y00532
X-00805
X-00834Y00522
X-011238Y0044
X-00108Y00426
X-00114Y0042
X-00027Y005
X-00016
X-00005
X00006
Y0052
X-00005
X-00016
X-00027
Y0054
X-00016
X-00005
X00006
Y0056
X-00005
X-00016
X-00027
T02
X-002168Y-006261
X-002032Y-006318
X-001896Y-006261
X-001839Y-006125
X-001896Y-005989
X-002032Y-005932
X-002168Y-005989
X-002225Y-006125
X-000193
X-000136Y-005989
X0Y-005932
X000136Y-005989
X000193Y-006125
X000136Y-006261
X0Y-006318
X-000136Y-006261
X-003928
X-003871Y-006125
X-003928Y-005989
X-004064Y-005932
X-0042Y-005989
X-004257Y-006125
X-0042Y-006261
X-004064Y-006318
X-00596Y-006261
X-005903Y-006125
X-00596Y-005989
X-006096Y-005932
X-006232Y-005989
X-006289Y-006125
X-006232Y-006261
X-006096Y-006318
X-007992Y-006261
X-007935Y-006125
X-007992Y-005989
X-008128Y-005932
X-008264Y-005989
X-008321Y-006125
X-008264Y-006261
X-008128Y-006318
X-010024Y-006261
X-01016Y-006318
X-010296Y-006261
X-010353Y-006125
X-010296Y-005989
X-01016Y-005932
X-010024Y-005989
X-009967Y-006125
X-011999
X-012056Y-005989
X-012192Y-005932
X-012328Y-005989
X-012385Y-006125
X-012328Y-006261
X-012192Y-006318
X-012056Y-006261
Y005989
X-011999Y006125
X-012056Y006261
X-012192Y006318
X-012328Y006261
X-012385Y006125
X-012328Y005989
X-012192Y005932
X-010296Y005989
X-01016Y005932
X-010024Y005989
X-009967Y006125
X-010024Y006261
X-01016Y006318
X-010296Y006261
X-010353Y006125
X-008321
X-008264Y005989
X-008128Y005932
X-007992Y005989
X-007935Y006125
X-007992Y006261
X-008128Y006318
X-008264Y006261
X-006232
X-006096Y006318
X-00596Y006261
X-005903Y006125
X-00596Y005989
X-006096Y005932
X-006232Y005989
X-006289Y006125
X-004257
X-0042Y005989
X-004064Y005932
X-003928Y005989
X-003871Y006125
X-003928Y006261
X-004064Y006318
X-0042Y006261
X-002168
X-002032Y006318
X-001896Y006261
X-001839Y006125
X-001896Y005989
X-002032Y005932
X-002168Y005989
X-002225Y006125
X-000193
X-000136Y005989
X-0Y005932
X000136Y005989
X000193Y006125
X000136Y006261
X-0Y006318
X-000136Y006261
T03
X-002522Y-00555
X-002322Y-00535
X-00029
X-00049Y-00555
X-004354Y-00535
X-004554Y-00555
X-006386Y-00535
X-006586Y-00555
X-008418Y-00535
X-008618Y-00555
X-01045Y-00535
X-01065Y-00555
X-012022Y-00535
X-012222Y-00555
T04
X-006869Y003788
X-006615
X-006361
X-006107
X-00598Y004042
X-006234
X-006488
X-006742
T05
X-002062Y-003937
X-001808
X-00003
X000224
X-00384
X-004094
X-005872
X-006126
X-007904
X-008158
X-009936
X-01019
X-011968
X-012222
Y-003683
X-011968
Y-003429
X-012222
Y-003175
Y-002921
Y-002667
X-011968
Y-002921
Y-003175
Y-002413
Y-002159
Y-001905
Y-001651
X-012222
Y-001905
Y-002159
Y-002413
X-01019
Y-002667
Y-002921
X-009936
Y-002667
Y-002413
Y-002159
Y-001905
Y-001651
X-01019
Y-001905
Y-002159
Y-003175
Y-003429
Y-003683
X-009936
Y-003429
Y-003175
X-008158
X-007904
Y-003429
X-008158
Y-003683
X-007904
Y-002921
Y-002667
Y-002413
X-008158
Y-002159
Y-001905
Y-001651
X-007904
Y-001905
Y-002159
X-008158Y-002667
Y-002921
X-006126
Y-003175
X-005872
Y-003429
X-006126
Y-003683
X-005872
Y-002921
Y-002667
Y-002413
X-006126
Y-002159
Y-001905
Y-001651
X-005872
Y-001905
Y-002159
X-006126Y-002667
X-004094
Y-002413
Y-002159
Y-001905
Y-001651
X-00384
Y-001905
Y-002159
Y-002413
Y-002667
Y-002921
Y-003175
X-004094
Y-003429
X-00384
Y-003683
X-004094
Y-002921
X-002062
Y-003175
X-001808
Y-003429
X-002062
Y-003683
X-001808
Y-002921
Y-002667
Y-002413
X-002062
Y-002159
Y-001905
Y-001651
X-001808
Y-001905
Y-002159
X-002062Y-002667
X-00003
Y-002921
X000224
Y-002667
Y-002413
X-00003
Y-002159
Y-001905
Y-001651
X000224
Y-001905
Y-002159
Y-003175
Y-003429
Y-003683
X-00003
Y-003429
Y-003175
Y001651
Y001905
Y002159
Y002413
Y002667
X000224
Y002413
Y002159
Y001905
Y001651
Y002921
Y003175
X-00003
Y003429
Y003683
X000224
Y003937
X-00003
X000224Y003429
X-00003Y002921
T07
X-0070575Y005088
X-0068035
X-0060465
X-0057925
T08
X-00722Y004287
X-00563
T09
X-002481Y003977
Y004803
T10
X-004175Y004865
T11
X-002032Y-006125
X0
X-004064
X-006096
X-008128
X-01016
X-012192
Y006125
X-01016
X-008128
X-006096
X-004064
X-002032
X-0
M30
