M48
;Layer_Color=9474304
;FILE_FORMAT=4:4
METRIC,LZ
;TYPE=PLATED
T1F00S00C0.2500
T2F00S00C0.8900
T3F00S00C0.9200
T4F00S00C1.0000
T5F00S00C1.5700
T6F00S00C2.3000
T7F00S00C2.7000
%
T01
X013Y-00484999
X0135Y-00484999
X014
Y-0046
X0145Y-00484999
X015
X0155Y-00484999
X0125Y-00484999
X012Y-00484999
X0115
X011Y-00484999
X0105
X01Y-00484999
X0095
X009Y-00484999
X0085
X008Y-00484999
X0075Y-00484999
X007
X0065Y-00484999
X006
X0055Y-00484999
X005
X0045Y-00484999
X004
X0035Y-00484999
X003
X0025Y-00484999
X002
X0015Y-00484999
X001
X0005Y-00484999
X00038119Y-00348
X013843Y-00393699
X01409Y-00292099
Y-00281
X015043Y-00317499
Y-00342899
Y-00419099
Y-00241299
X01459914Y-00114299
X01446Y-00114
X0141055Y-00102
X014825Y-00032358
X01495172Y0002275
X01501Y0007
X01443Y000889
X0141Y00107
X0005Y00485001
X001Y00485001
X0015
X002Y00485001
X0025
X003Y00485001
X0035
X004Y00485001
X0045
X005Y00485001
X0055
X006Y00485001
X0065
X007Y00485001
X0075
X008Y00485001
X0085Y00485001
X009
X0095Y00485001
X01
X0105Y00485001
X011
X0115Y00485001
X012
X0125Y00485001
X013
X0135Y00485001
X014
X0145Y00485001
X015
X0155Y00485001
T02
X0152185Y001745
Y001948
Y002151
Y002354
X0153965Y002253
Y00205
Y001847
Y002456
T03
X015724Y0035
Y00375
Y00395
Y0042
T04
X000381Y-003175
Y-002921
Y-002667
Y-002413
Y-002159
Y-001905
Y-001651
Y-001397
Y-001143
X000635
Y-001397
Y-001651
Y-001905
Y-002159
X000889
Y-001905
Y-001651
Y-001397
Y-001143
Y-000889
X000635
X000381
Y-000635
X000635
X000889
Y-002413
X000635
Y-002667
Y-002921
Y-003175
X000889
Y-002921
Y-002667
X001143
Y-002921
Y-003175
X001397
Y-003429
Y-003683
Y-003937
X001651
Y-003683
Y-003429
X001905
X002159
Y-003683
Y-003937
X001905
Y-003683
Y-003175
X002159
Y-002921
Y-002667
X001905
Y-002413
X001651
Y-002159
X001397
X001143
Y-001905
Y-001651
Y-001397
Y-001143
X001397
Y-001397
Y-001651
Y-001905
X001651
Y-001651
Y-001397
Y-001143
X001905
Y-001397
Y-001651
Y-001905
X002159
Y-001651
Y-001397
Y-001143
X002413
Y-001397
Y-001651
Y-001905
X002667
Y-001651
Y-001397
X002921
X003175
Y-001651
Y-001905
Y-002159
X002921
X002667
X002413
X002159
X001905
X002159Y-002413
X002413
Y-002667
Y-002921
Y-003175
Y-003429
Y-003683
Y-003937
X002667
Y-003683
Y-003429
X002921
X003175
Y-003683
X003429
Y-003937
X003683
Y-003683
X003937
Y-003937
X004191
X004445
Y-003683
Y-003429
X004699
Y-003683
Y-003937
Y-004191
X004445
Y-004445
X004699
X004191
X003937
X003683
Y-004191
X003429
Y-004445
X003175
Y-004191
Y-003937
X002921
Y-003683
Y-003175
Y-002921
Y-002667
Y-002413
X003175
Y-002667
Y-002921
Y-003175
X003429
Y-003429
X003683
Y-003175
Y-002921
X003429
Y-002667
Y-002413
Y-002159
Y-001905
Y-001651
Y-001397
Y-001143
X003175
Y-000889
Y-000635
X003429
Y-000889
X003683
Y-001143
Y-001397
Y-001651
Y-001905
Y-002159
Y-002413
Y-002667
X003937
Y-002413
Y-002159
Y-001905
Y-001651
Y-001397
Y-001143
Y-000889
Y-000635
X003683
X004191
Y-000889
Y-001143
Y-001397
Y-001651
Y-001905
Y-002159
Y-002413
Y-002667
Y-002921
Y-003175
Y-003429
X003937
Y-003175
Y-002921
X004445
Y-003175
X004699
Y-002921
Y-002667
X004445
Y-002413
X004699
Y-002159
X004445
Y-001905
Y-001651
Y-001397
Y-001143
Y-000889
X004699
Y-001143
Y-001397
Y-001651
Y-001905
Y-000635
X004445
X002921
X002667
X002413
X002159
X001905
X001651
X001397
X001143
Y-000889
X001397
X001651
X001905
X002159
X002413
X002667
Y-001143
X002921
Y-000889
Y-001651
Y-001905
X002667Y-002413
Y-002667
Y-002921
Y-003175
X001651
Y-002921
X001397
Y-002667
Y-002413
X001143
X001651Y-002667
X001905Y-002921
Y-004191
X002159
Y-004445
X001905
X001651
Y-004191
X001397
Y-004445
X002413
Y-004191
X002667
X002921
Y-004445
X002667
X003937Y-004191
X004191
Y-003683
X004953
Y-003429
X005207
X005461
X005715
X005969
Y-003683
Y-003937
X006223
Y-003683
Y-003429
X006477
X006731
X006985
Y-003683
Y-003937
X007239
Y-003683
Y-003429
X007493
Y-003683
Y-003937
X007747
Y-003683
Y-003429
Y-003175
X007493
Y-002921
Y-002667
Y-002413
X007747
Y-002667
Y-002921
X008001
Y-003175
X008255
Y-002921
Y-002667
X008001
Y-002413
Y-002159
X008255
Y-002413
X008509
Y-002667
Y-002921
Y-003175
Y-003429
X008255
X008001
Y-003683
Y-003937
X008255
Y-003683
X008509
Y-003937
X008763
Y-003683
Y-003429
Y-003175
Y-002921
Y-002667
Y-002413
Y-002159
X008509
Y-001905
X008255
X008001
X007747
Y-002159
X007493
X007239
Y-002413
X006985
X006731
X006477
X006223
X005969
X005715
X005461
X005207
X004953
Y-002159
X005207
X005461
X005715
X005969
X006223
X006477
X006731
Y-001905
X006477
X006223
X005969
X005715
X005461
X005207
X004953
Y-001651
Y-001397
Y-001143
X005207
Y-001397
Y-001651
X005461
Y-001397
Y-001143
Y-000889
X005207
X004953
Y-000635
X005207
X005461
X005715
Y-000889
Y-001143
Y-001397
Y-001651
X005969
Y-001397
Y-001143
X006223
Y-001397
Y-001651
X006477
Y-001397
Y-001143
X006731
Y-001397
Y-001651
X006985
Y-001905
Y-002159
Y-002667
X006731
X006477
X006223
X005969
X005715
X005461
X005207
X004953
Y-002921
Y-003175
X005207
Y-002921
X005461
Y-003175
X005715
Y-002921
X005969
Y-003175
X006223
Y-002921
X006477
Y-003175
X006731
Y-002921
X006985
Y-003175
X007239
Y-002921
Y-002667
Y-001905
Y-001651
X007493
Y-001397
Y-001143
X007747
Y-001397
Y-001651
X008001
Y-001397
Y-001143
X008255
Y-001397
Y-001651
X008509
Y-001397
X008763
Y-001143
Y-000889
X008509
Y-000635
X008763
X008255
Y-000889
X008001
X007747
X007493
X007239
Y-001143
X006985
Y-001397
X007239
X007493Y-001905
X008763
Y-001651
X008509Y-001143
X008001Y-000635
X007747
X007493
X007239
X006985
X006731
X006477
X006223
X005969
Y-000889
X006223
X006477
X006731
X006985
X006731Y-003683
X006477
Y-003937
X006731
Y-004191
X006985
X007239
Y-004445
X007493
Y-004191
X007747
X008001
X008255
Y-004445
X008001
X007747
X006985
X006731
X006477
Y-004191
X006223
X005969
Y-004445
X006223
X005715
Y-004191
Y-003937
Y-003683
X005461
X005207
Y-003937
X004953
Y-004191
X005207
X005461
Y-003937
Y-004445
X005207
X004953
X008509
Y-004191
X008763
Y-004445
X009017
Y-004191
Y-003937
Y-003683
Y-003429
X009271
X009525
Y-003683
X009271
Y-003937
X009525
X009779
Y-003683
Y-003429
X010033
Y-003683
Y-003937
X010287
Y-003683
Y-003429
X010541
Y-003683
Y-003937
X010795
Y-003683
Y-003429
X011049
X011303
Y-003683
Y-003937
X011557
Y-003683
Y-003429
Y-003175
X011303
Y-002921
Y-002667
Y-002413
Y-002159
X011049
X010795
X010541
X010287
X010033
X009779
Y-001905
X009525
X009271
X009017
Y-001651
Y-001397
Y-001143
Y-000889
X009271
X009525
Y-001143
X009271
Y-001397
Y-001651
X009525
Y-001397
X009779
Y-001651
X010033
X010287
Y-001397
X010541
Y-001651
Y-001905
X010795
Y-001651
Y-001397
Y-001143
X010541
X010287
X010033
Y-000889
X009779
Y-000635
X009525
X009271
X009017
X010033
X010287
Y-000889
X010541
Y-000635
X010795
Y-000889
X011049
Y-000635
X011303
Y-000889
Y-001143
X011049
Y-001397
Y-001651
Y-001905
X011303
Y-001651
Y-001397
X011557
Y-001651
Y-001905
Y-002159
X011811
Y-001905
Y-001651
Y-001397
Y-001143
X012065
Y-001397
Y-001651
Y-001905
Y-002159
Y-002413
X011811
X011557
Y-002667
Y-002921
X011811
Y-003175
X012065
X012319
Y-002921
X012573
Y-003175
Y-003429
X012827
Y-003175
Y-002921
Y-002667
X012573
X012319
X012065
X011811
X012065Y-002921
Y-003429
X011811
Y-003683
Y-003937
X012065
Y-003683
X012319
Y-003429
Y-003937
X012573
Y-003683
X012827
Y-003937
Y-004191
X012573
X012319
X012065
X011811
X011557
X011303
X011049
Y-003937
Y-003683
Y-003175
X010795
X010541
X010287
X010033
X009779
X009525
X009271
X009017
Y-002921
Y-002667
Y-002413
X009271
Y-002159
X009017
X009525
Y-002413
Y-002667
X009271
Y-002921
X009525
X009779
Y-002667
Y-002413
X010033
Y-002667
Y-002921
X010287
Y-002667
Y-002413
X010541
Y-002667
Y-002921
X010795
Y-002667
Y-002413
X011049
Y-002667
Y-002921
Y-004445
X011303
X011557
X011811
X012065
X012319
X012573
X012827
Y-002413
X012573
X012319
Y-002159
Y-001905
Y-001651
Y-001397
Y-001143
X012573
Y-001397
Y-001651
Y-001905
Y-002159
X012827
Y-001905
Y-001651
Y-001397
Y-001143
Y-000889
X012573
X012319
X012065
X011811
X011557
Y-001143
Y-000635
X011811
X012065
X012319
X012573
X012827
X009779Y-001143
X010033Y-001397
Y-001905
X010287
Y-004191
X010033
Y-004445
X010287
X010541
X010795
Y-004191
X010541
X009779
Y-004445
X009525
X009271
Y-004191
X009525
X013081
X013335
Y-004445
X013589
Y-004191
Y-003937
X013335
Y-003683
Y-003429
Y-003175
Y-002921
Y-002667
Y-002413
Y-002159
Y-001905
Y-001651
Y-001397
Y-001143
Y-000889
Y-000635
X013081
Y-000889
Y-001143
Y-001397
Y-001651
Y-001905
Y-002159
Y-002413
Y-002667
Y-002921
Y-003175
Y-003429
Y-003683
Y-003937
Y-004445
X013843
Y-004191
Y-00368299
Y-003429
X013589
Y-003683
Y-003175
X013843
X013589Y-002921
Y-002667
Y-002413
Y-002159
X013843
Y-001905
X013589
Y-001651
Y-001397
X013843
Y-001143
X013589
Y-000889
Y-000635
X013843
Y-000889
Y-002413
Y-002667
X015212Y-00266699
Y-00292099
Y-00317499
Y-00342899
Y-00368299
Y-00393699
X015466
Y-00368299
Y-00342899
Y-00317499
Y-00292099
Y-00266699
Y-00241299
X015212
Y-00215899
Y-00190499
Y-00165099
X015466
Y-00190499
Y-00215899
X013843Y-000381
X013589
X013335
Y-000127
Y000127
Y000381
Y000635
Y000889
Y001143
Y001397
Y001651
Y001905
Y002159
Y002413
Y002667
Y002921
Y003175
X013081
Y002921
Y002667
Y002413
Y002159
Y001905
Y001651
Y001397
Y001143
Y000889
Y000635
Y000381
Y000127
Y-000127
Y-000381
X013589Y-000127
Y000127
X013843
Y000381
X013589
Y000635
X013843
Y000889
X013589
Y001143
Y001397
Y001651
Y001905
Y002159
Y002413
Y002667
Y002921
Y003175
X013843Y-000127
X012827
X012573
X012319
Y000127
X012065
Y000381
Y000635
Y000889
Y001143
X012319
Y000889
Y000635
Y000381
X012573
Y000635
Y000889
Y001143
X012827
Y000889
Y000635
Y000381
Y000127
X012573
Y-000381
X012319
X012065
X011811
X011557
X011303
X011049
X010795
X010541
X010287
X010033
X009779
X009525
Y-000127
X009779
X010033
X010287
X010541
X010795
Y000127
X010541
X010287
X010033
X009779
X009525
X009271
X009017
Y000381
Y000635
Y000889
Y001143
Y001397
Y001651
Y001905
Y002159
X009271
Y001905
Y001651
Y001397
Y001143
Y000889
Y000635
Y000381
X009525
Y000635
Y000889
Y001143
Y001397
Y001651
Y001905
Y002159
Y002413
X009271
X009017
Y002667
Y002921
Y003175
X009271
Y002921
Y002667
X009525
Y002921
Y003175
X009779
Y002921
Y002667
Y002413
Y002159
Y001905
Y001651
Y001397
Y001143
Y000889
Y000635
Y000381
X010033
Y000635
Y000889
X010287
Y000635
Y000381
X010541
Y000635
Y000889
X010795
Y000635
Y000381
X011049
Y000127
Y-000127
X011303
Y000127
Y000381
Y000635
X011049
Y000889
Y001143
X010795
X010541
X010287
X010033
Y001397
Y001651
Y001905
Y002159
Y002413
X010287
Y002159
Y001905
Y001651
Y001397
X010541
Y001651
Y001905
Y002159
X010795
Y001905
Y001651
Y001397
X011049
Y001651
Y001905
Y002159
Y002413
X010795
X010541
Y002667
X010287
X010033
Y002921
Y003175
X010287
Y002921
X010541
Y003175
X010795
Y002921
Y002667
X011049
Y002921
Y003175
X011303
Y002921
Y002667
Y002413
X011557
Y002667
Y002921
Y003175
X011811
Y002921
Y002667
X012065
X012319
Y002413
X012065
X011811
Y002159
X011557
X011303
Y001905
Y001651
Y001397
Y001143
Y000889
X011557
Y000635
Y000381
Y000127
Y-000127
X011811
Y000127
Y000381
Y000635
Y000889
Y001143
X011557
Y001397
Y001651
Y001905
X011811
Y001651
Y001397
X012065
Y001651
Y001905
Y002159
X012319
Y001905
Y001651
Y001397
X012573
Y001651
Y001905
Y002159
Y002413
Y002667
X012827
Y002921
X012573
X012319
X012065
Y003175
X012319
X012573
X012827
Y002413
Y002159
Y001905
Y001651
Y001397
Y-000381
X012065Y-000127
X009271
X009017
Y-000381
X009271
X008763
X008509
Y-000127
Y000127
X008255
X008001
X007747
X007493
X007239
X006985
Y000381
X006731
X006477
X006223
X005969
X005715
X005461
X005207
X004953
Y000635
Y000889
Y001143
X005207
Y000889
Y000635
X005461
Y000889
Y001143
Y001397
X005207
X004953
Y001651
Y001905
Y002159
Y002413
X005207
Y002159
Y001905
Y001651
X005461
Y001905
Y002159
Y002413
Y002667
X005207
X004953
Y002921
Y003175
X005207
Y002921
X005461
Y003175
X005715
Y002921
Y002667
Y002413
Y002159
Y001905
Y001651
Y001397
Y001143
Y000889
Y000635
X005969
Y000889
Y001143
X006223
Y000889
Y000635
X006477
Y000889
Y001143
Y001397
X006223
X005969
Y001651
Y001905
Y002159
X006223
Y001905
Y001651
X006477
Y001905
Y002159
X006731
Y001905
Y001651
Y001397
Y001143
Y000889
Y000635
X006985
Y000889
Y001143
X007239
Y000889
Y000635
Y000381
X007493
Y000635
Y000889
Y001143
X007747
Y000889
Y000635
Y000381
X008001
Y000635
Y000889
Y001143
X008255
Y000889
Y000635
Y000381
X008509
Y000635
Y000889
Y001143
X008763
Y000889
Y000635
Y000381
Y000127
Y-000127
X008255
X008001
X007747
Y-000381
X007493
X007239
X006985
X006731
X006477
X006223
X005969
X005715
X005461
X005207
X004953
Y-000127
Y000127
X005207
Y-000127
X005461
Y000127
X005715
Y-000127
X005969
Y000127
X006223
Y-000127
X006477
Y000127
X006731
Y-000127
X006985
X007239
X007493
X008001Y-000381
X008255
Y001397
X008001
X007747
X007493
X007239
X006985
Y001651
Y001905
Y002159
X007239
Y001905
Y001651
X007493
Y001905
Y002159
Y002413
X007239
X006985
X006731
X006477
X006223
X005969
Y002667
Y002921
Y003175
X006223
Y002921
Y002667
X006477
Y002921
Y003175
X006731
Y002921
Y002667
X006985
Y002921
Y003175
X007239
Y002921
Y002667
X007493
Y002921
Y003175
X007747
Y002921
Y002667
Y002413
Y002159
Y001905
Y001651
X008001
Y001905
Y002159
X008255
Y001905
Y001651
X008509
Y001397
X008763
Y001651
Y001905
X008509
Y002159
X008763
Y002413
X008509
X008255
X008001
Y002667
Y002921
Y003175
X008255
Y002921
Y002667
X008509
Y002921
Y003175
X008763
Y002921
Y002667
X004699
Y002413
X004445
X004191
X003937
X003683
Y002159
X003429
X003175
X002921
X002667
X002413
X002159
X001905
X001651
X001397
X001143
Y001905
Y001651
Y001397
Y001143
Y000889
Y000635
Y000381
Y000127
Y-000127
Y-000381
X001397
Y-000127
Y000127
Y000381
Y000635
Y000889
Y001143
X001651
Y000889
Y000635
Y000381
Y000127
Y-000127
Y-000381
X001905
Y-000127
Y000127
Y000381
Y000635
Y000889
Y001143
Y001397
X001651
X001397
Y001651
Y001905
X001651
Y001651
X001905
Y001905
X002159
Y001651
Y001397
Y001143
Y000889
Y000635
Y000381
Y000127
X002413
Y000381
Y000635
Y000889
Y001143
X002667
Y000889
Y000635
Y000381
Y000127
X002921
Y000381
Y000635
Y000889
X003175
Y000635
Y000381
Y000127
Y-000127
X002921
X002667
X002413
X002159
Y-000381
X002413
X002667
X002921
X003175
X003429
Y-000127
Y000127
Y000381
Y000635
Y000889
X003683
Y000635
Y000381
X003937
Y000635
Y000889
Y001143
X003683
X003429
X003175
X002921
Y001397
X002667
X002413
Y001651
Y001905
X002667
Y001651
X002921
Y001905
X003175
Y001651
Y001397
X003429
Y001651
Y001905
X003683
Y001651
Y001397
X003937
X004191
Y001143
Y000889
Y000635
Y000381
X004445
Y000635
Y000889
Y001143
X004699
Y000889
Y000635
Y000381
Y000127
X004445
X004191
X003937
X003683
Y-000127
Y-000381
X003937
Y-000127
X004191
Y-000381
X004445
Y-000127
X004699
Y-000381
Y001397
X004445
Y001651
X004191
X003937
Y001905
Y002159
X004191
Y001905
X004445
Y002159
X004699
Y001905
Y001651
X004445Y002667
X004191
X003937
X003683
X003429
X003175
X002921
Y002413
X002667
X002413
X002159
X001905
X001651
X001397
X001143
Y002667
Y002921
Y003175
X001397
Y002921
Y002667
X001651
Y002921
Y003175
X001905
Y002921
Y002667
X002159
Y002921
Y003175
X002413
Y002921
Y002667
X002667
Y002921
Y003175
X002921
Y002921
X003175
Y003175
X003429
Y002921
X003683
Y003175
X003937
Y002921
X004191
Y003175
X004445
Y002921
X004699
Y003175
X003429Y002413
X003175
X000889
X000635
Y002159
X000381
Y001905
Y001651
Y001397
Y001143
Y000889
Y000635
Y000381
Y000127
X000635
Y000381
Y000635
Y000889
X000889
Y000635
Y000381
Y000127
Y-000127
X000635
X000381
Y-000381
X000635
X000889
Y001143
X000635
Y001397
Y001651
Y001905
X000889
Y001651
Y001397
Y002159
Y002667
X000635
X000381
Y002413
Y002921
Y003175
X000635
Y002921
X000889
Y003175
Y003429
X000635
X000381
Y003683
Y003937
X000635
Y003683
X000889
Y003937
Y004191
Y004445
X001143
Y004191
Y003937
Y003683
Y003429
X001397
X001651
Y003683
X001397
Y003937
X001651
X001905
Y003683
Y003429
X002159
X002413
X002667
X002921
X003175
X003429
X003683
Y003683
X003429
X003175
X002921
X002667
X002413
X002159
Y003937
X002413
X002667
X002921
X003175
X003429
X003683
X003937
Y003683
Y003429
X004191
X004445
X004699
Y003683
X004445
X004191
Y003937
X004445
X004699
Y004191
X004445
X004191
X003937
X003683
X003429
X003175
X002921
X002667
X002413
X002159
X001905
X001651
X001397
Y004445
X001651
X001905
X002159
X002413
X002667
X002921
X003175
X003429
X003683
X003937
X004191
X004445
X004699
X004953
Y004191
Y003937
Y003683
Y003429
X005207
X005461
Y003683
X005207
Y003937
X005461
X005715
Y003683
Y003429
X005969
X006223
X006477
X006731
X006985
X007239
X007493
X007747
X008001
X008255
X008509
X008763
Y003683
X008509
Y003937
X008763
Y004191
X008509
Y004445
X008255
X008001
X007747
X007493
X007239
X006985
X006731
X006477
X006223
X005969
X005715
X005461
X005207
Y004191
X005461
X005715
X005969
Y003937
Y003683
X006223
Y003937
X006477
Y003683
X006731
Y003937
X006985
Y003683
X007239
Y003937
X007493
Y003683
X007747
Y003937
X008001
Y003683
X008255
Y003937
Y004191
X008001
X007747
X007493
X007239
X006985
X006731
X006477
X006223
X008763Y004445
X009017
Y004191
Y003937
Y003683
Y003429
X009271
X009525
X009779
Y003683
X009525
X009271
Y003937
X009525
X009779
X010033
X010287
Y003683
Y003429
X010541
X010795
X011049
Y003683
X010795
X010541
Y003937
X010795
X011049
X011303
Y003683
X011557
Y003937
X011811
Y003683
X012065
Y003937
X012319
Y003683
X012573
Y003937
X012827
Y003683
Y003429
X012573
X012319
X012065
X011811
X011557
X011303
Y004191
X011049
X010795
X010541
X010287
X010033
Y004445
X010287
X010541
X010795
X011049
X011303
X011557
Y004191
X011811
Y004445
X012065
X012319
X012573
Y004191
X012319
X012065
X012827
Y004445
X009779
X009525
X009271
Y004191
X009525
X009779
X010033Y003683
Y003429
X013081
X013335
Y003683
Y003937
Y004191
Y004445
X013081
Y004191
Y003937
Y003683
X013589
Y003937
Y004191
Y004445
X013843
Y004191
X013589Y003429
T05
X0153075Y001287
Y002913
T06
X015453Y003193
Y004507
T07
X000356Y-00444499
Y00444501
M30
