  0
SECTION
  2
HEADER
  9
$MEASUREMENT
  70
  1
  9
$INSUNITS
  70
  4
  0
ENDSEC
  0
SECTION
  2
TABLES
  0
TABLE
  2
LTYPE
 70
     1
  0
LTYPE
  2
CONTINUOUS
 70
    64
  3
Ausgezogene Linie
 72
    65
 73
     0
 40
0.0
  0
ENDTAB
  0
TABLE
  2
LAYER
 70
     3
  0
LAYER
  2
Contour
 70
    64
 62
     7
  6
CONTINUOUS
  0
LAYER
  2
Engraving
 70
    64
 62
     7
  6
CONTINUOUS
  0
LAYER
  2
Reference_points
 70
    64
 62
     1
  6
CONTINUOUS
  0
ENDTAB
  0
TABLE
  2
STYLE
 70
     1
  0
STYLE
  2
TXT
 70
    64
 40
0.0
 41
1.0
 50
0.0
 71
     0
 42
3.500000
  3
TXT
  0
ENDTAB
  0
ENDSEC
  0
SECTION
  2
BLOCKS
  0
ENDSEC
  0
SECTION
  2
ENTITIES
  0
LINE
  8
Contour
 62
   7
 39
0.100
  6
CONTINUOUS
 10
141.90000
 20
128.40000
 30
 0
 11
141.90000
 21
0.00000
  0
LINE
  8
Contour
 62
   7
 39
0.100
  6
CONTINUOUS
 10
141.90000
 20
0.00000
 30
 0
 11
0.00000
 21
0.00000
  0
LINE
  8
Contour
 62
   7
 39
0.100
  6
CONTINUOUS
 10
0.00000
 20
0.00000
 30
 0
 11
0.00000
 21
128.40000
  0
LINE
  8
Contour
 62
   7
 39
0.100
  6
CONTINUOUS
 10
0.00000
 20
128.40000
 30
 0
 11
141.90000
 21
128.40000
  0
ARC
  8
Contour
 62
   7
 39
0.100
  6
CONTINUOUS
 10
5.45000
 20
11.45000
 30
 0
 40
1.50000
 50
180.00000
 51
270.00000
  0
LINE
  8
Contour
 62
   7
 39
0.100
  6
CONTINUOUS
 10
5.45000
 20
9.95000
 30
 0
 11
38.45000
 21
9.95000
  0
ARC
  8
Contour
 62
   7
 39
0.100
  6
CONTINUOUS
 10
38.45000
 20
11.45000
 30
 0
 40
1.50000
 50
270.00000
 51
360.00000
  0
LINE
  8
Contour
 62
   7
 39
0.100
  6
CONTINUOUS
 10
39.95000
 20
11.45000
 30
 0
 11
39.95000
 21
32.95000
  0
ARC
  8
Contour
 62
   7
 39
0.100
  6
CONTINUOUS
 10
38.45000
 20
32.95000
 30
 0
 40
1.50000
 50
0.00000
 51
90.00000
  0
LINE
  8
Contour
 62
   7
 39
0.100
  6
CONTINUOUS
 10
38.45000
 20
34.45000
 30
 0
 11
5.45000
 21
34.45000
  0
ARC
  8
Contour
 62
   7
 39
0.100
  6
CONTINUOUS
 10
5.45000
 20
32.95000
 30
 0
 40
1.50000
 50
90.00000
 51
180.00000
  0
LINE
  8
Contour
 62
   7
 39
0.100
  6
CONTINUOUS
 10
3.95000
 20
32.95000
 30
 0
 11
3.95000
 21
11.45000
  0
CIRCLE
  8
Contour
 62
   7
 39
0.100
  6
CONTINUOUS
 10
41.32500
 20
41.97500
 30
 0
 40
3.50000
  0
CIRCLE
  8
Contour
 62
   7
 39
0.100
  6
CONTINUOUS
 10
41.32500
 20
41.97500
 30
 0
 40
2.50000
  0
CIRCLE
  8
Contour
 62
   7
 39
0.100
  6
CONTINUOUS
 10
41.32500
 20
41.97500
 30
 0
 40
1.50000
  0
CIRCLE
  8
Contour
 62
   7
 39
0.100
  6
CONTINUOUS
 10
41.32500
 20
86.42500
 30
 0
 40
3.50000
  0
CIRCLE
  8
Contour
 62
   7
 39
0.100
  6
CONTINUOUS
 10
41.32500
 20
86.42500
 30
 0
 40
2.50000
  0
CIRCLE
  8
Contour
 62
   7
 39
0.100
  6
CONTINUOUS
 10
41.32500
 20
86.42500
 30
 0
 40
1.50000
  0
CIRCLE
  8
Contour
 62
   7
 39
0.100
  6
CONTINUOUS
 10
136.57500
 20
86.42500
 30
 0
 40
3.50000
  0
CIRCLE
  8
Contour
 62
   7
 39
0.100
  6
CONTINUOUS
 10
136.57500
 20
86.42500
 30
 0
 40
2.50000
  0
CIRCLE
  8
Contour
 62
   7
 39
0.100
  6
CONTINUOUS
 10
136.57500
 20
86.42500
 30
 0
 40
1.50000
  0
CIRCLE
  8
Contour
 62
   7
 39
0.100
  6
CONTINUOUS
 10
136.57500
 20
41.97500
 30
 0
 40
3.50000
  0
CIRCLE
  8
Contour
 62
   7
 39
0.100
  6
CONTINUOUS
 10
136.57500
 20
41.97500
 30
 0
 40
2.50000
  0
CIRCLE
  8
Contour
 62
   7
 39
0.100
  6
CONTINUOUS
 10
136.57500
 20
41.97500
 30
 0
 40
1.50000
  0
ARC
  8
Contour
 62
   7
 39
0.100
  6
CONTINUOUS
 10
7.45000
 20
125.40000
 30
 0
 40
2.95030
 50
152.00177
 51
207.99823
  0
ARC
  8
Contour
 62
   7
 39
0.100
  6
CONTINUOUS
 10
5.28633
 20
124.25000
 30
 0
 40
0.50000
 50
208.03424
 51
270.07638
  0
LINE
  8
Contour
 62
   7
 39
0.100
  6
CONTINUOUS
 10
5.28700
 20
123.75000
 30
 0
 11
9.61300
 21
123.75000
  0
ARC
  8
Contour
 62
   7
 39
0.100
  6
CONTINUOUS
 10
9.61367
 20
124.25000
 30
 0
 40
0.50000
 50
269.92362
 51
331.96576
  0
ARC
  8
Contour
 62
   7
 39
0.100
  6
CONTINUOUS
 10
7.45000
 20
125.40000
 30
 0
 40
2.95030
 50
332.00177
 51
387.99823
  0
ARC
  8
Contour
 62
   7
 39
0.100
  6
CONTINUOUS
 10
9.61367
 20
126.55000
 30
 0
 40
0.50000
 50
28.03424
 51
90.07638
  0
LINE
  8
Contour
 62
   7
 39
0.100
  6
CONTINUOUS
 10
9.61300
 20
127.05000
 30
 0
 11
5.28700
 21
127.05000
  0
ARC
  8
Contour
 62
   7
 39
0.100
  6
CONTINUOUS
 10
5.28633
 20
126.55000
 30
 0
 40
0.50000
 50
89.92362
 51
151.96576
  0
ARC
  8
Contour
 62
   7
 39
0.100
  6
CONTINUOUS
 10
134.45000
 20
125.40000
 30
 0
 40
2.95030
 50
152.00177
 51
207.99823
  0
ARC
  8
Contour
 62
   7
 39
0.100
  6
CONTINUOUS
 10
132.28633
 20
124.25000
 30
 0
 40
0.50000
 50
208.03424
 51
270.07638
  0
LINE
  8
Contour
 62
   7
 39
0.100
  6
CONTINUOUS
 10
132.28700
 20
123.75000
 30
 0
 11
136.61300
 21
123.75000
  0
ARC
  8
Contour
 62
   7
 39
0.100
  6
CONTINUOUS
 10
136.61367
 20
124.25000
 30
 0
 40
0.50000
 50
269.92362
 51
331.96576
  0
ARC
  8
Contour
 62
   7
 39
0.100
  6
CONTINUOUS
 10
134.45000
 20
125.40000
 30
 0
 40
2.95030
 50
332.00177
 51
387.99823
  0
ARC
  8
Contour
 62
   7
 39
0.100
  6
CONTINUOUS
 10
136.61367
 20
126.55000
 30
 0
 40
0.50000
 50
28.03424
 51
90.07638
  0
LINE
  8
Contour
 62
   7
 39
0.100
  6
CONTINUOUS
 10
136.61300
 20
127.05000
 30
 0
 11
132.28700
 21
127.05000
  0
ARC
  8
Contour
 62
   7
 39
0.100
  6
CONTINUOUS
 10
132.28633
 20
126.55000
 30
 0
 40
0.50000
 50
89.92362
 51
151.96576
  0
ARC
  8
Contour
 62
   7
 39
0.100
  6
CONTINUOUS
 10
7.45000
 20
3.00000
 30
 0
 40
2.95030
 50
152.00177
 51
207.99823
  0
ARC
  8
Contour
 62
   7
 39
0.100
  6
CONTINUOUS
 10
5.28633
 20
1.85000
 30
 0
 40
0.50000
 50
208.03424
 51
270.07638
  0
LINE
  8
Contour
 62
   7
 39
0.100
  6
CONTINUOUS
 10
5.28700
 20
1.35000
 30
 0
 11
9.61300
 21
1.35000
  0
ARC
  8
Contour
 62
   7
 39
0.100
  6
CONTINUOUS
 10
9.61367
 20
1.85000
 30
 0
 40
0.50000
 50
269.92362
 51
331.96576
  0
ARC
  8
Contour
 62
   7
 39
0.100
  6
CONTINUOUS
 10
7.45000
 20
3.00000
 30
 0
 40
2.95030
 50
332.00177
 51
387.99823
  0
ARC
  8
Contour
 62
   7
 39
0.100
  6
CONTINUOUS
 10
9.61367
 20
4.15000
 30
 0
 40
0.50000
 50
28.03424
 51
90.07638
  0
LINE
  8
Contour
 62
   7
 39
0.100
  6
CONTINUOUS
 10
9.61300
 20
4.65000
 30
 0
 11
5.28700
 21
4.65000
  0
ARC
  8
Contour
 62
   7
 39
0.100
  6
CONTINUOUS
 10
5.28633
 20
4.15000
 30
 0
 40
0.50000
 50
89.92362
 51
151.96576
  0
ARC
  8
Contour
 62
   7
 39
0.100
  6
CONTINUOUS
 10
134.45000
 20
3.00000
 30
 0
 40
2.95030
 50
152.00177
 51
207.99823
  0
ARC
  8
Contour
 62
   7
 39
0.100
  6
CONTINUOUS
 10
132.28633
 20
1.85000
 30
 0
 40
0.50000
 50
208.03424
 51
270.07638
  0
LINE
  8
Contour
 62
   7
 39
0.100
  6
CONTINUOUS
 10
132.28700
 20
1.35000
 30
 0
 11
136.61300
 21
1.35000
  0
ARC
  8
Contour
 62
   7
 39
0.100
  6
CONTINUOUS
 10
136.61367
 20
1.85000
 30
 0
 40
0.50000
 50
269.92362
 51
331.96576
  0
ARC
  8
Contour
 62
   7
 39
0.100
  6
CONTINUOUS
 10
134.45000
 20
3.00000
 30
 0
 40
2.95030
 50
332.00177
 51
387.99823
  0
ARC
  8
Contour
 62
   7
 39
0.100
  6
CONTINUOUS
 10
136.61367
 20
4.15000
 30
 0
 40
0.50000
 50
28.03424
 51
90.07638
  0
LINE
  8
Contour
 62
   7
 39
0.100
  6
CONTINUOUS
 10
136.61300
 20
4.65000
 30
 0
 11
132.28700
 21
4.65000
  0
ARC
  8
Contour
 62
   7
 39
0.100
  6
CONTINUOUS
 10
132.28633
 20
4.15000
 30
 0
 40
0.50000
 50
89.92362
 51
151.96576
  0
ARC
  8
Contour
 62
   7
 39
0.100
  6
CONTINUOUS
 10
100.70000
 20
8.70000
 30
 0
 40
1.50000
 50
180.00000
 51
270.00000
  0
LINE
  8
Contour
 62
   7
 39
0.100
  6
CONTINUOUS
 10
100.70000
 20
7.20000
 30
 0
 11
101.20000
 21
7.20000
  0
ARC
  8
Contour
 62
   7
 39
0.100
  6
CONTINUOUS
 10
101.20000
 20
8.70000
 30
 0
 40
1.50000
 50
270.00000
 51
360.00000
  0
LINE
  8
Contour
 62
   7
 39
0.100
  6
CONTINUOUS
 10
102.70000
 20
8.70000
 30
 0
 11
102.70000
 21
35.70000
  0
ARC
  8
Contour
 62
   7
 39
0.100
  6
CONTINUOUS
 10
101.20000
 20
35.70000
 30
 0
 40
1.50000
 50
0.00000
 51
90.00000
  0
LINE
  8
Contour
 62
   7
 39
0.100
  6
CONTINUOUS
 10
101.20000
 20
37.20000
 30
 0
 11
100.70000
 21
37.20000
  0
ARC
  8
Contour
 62
   7
 39
0.100
  6
CONTINUOUS
 10
100.70000
 20
35.70000
 30
 0
 40
1.50000
 50
90.00000
 51
180.00000
  0
LINE
  8
Contour
 62
   7
 39
0.100
  6
CONTINUOUS
 10
99.20000
 20
35.70000
 30
 0
 11
99.20000
 21
8.70000
  0
ARC
  8
Contour
 62
   7
 39
0.100
  6
CONTINUOUS
 10
110.70000
 20
8.70000
 30
 0
 40
1.50000
 50
180.00000
 51
270.00000
  0
LINE
  8
Contour
 62
   7
 39
0.100
  6
CONTINUOUS
 10
110.70000
 20
7.20000
 30
 0
 11
111.20000
 21
7.20000
  0
ARC
  8
Contour
 62
   7
 39
0.100
  6
CONTINUOUS
 10
111.20000
 20
8.70000
 30
 0
 40
1.50000
 50
270.00000
 51
360.00000
  0
LINE
  8
Contour
 62
   7
 39
0.100
  6
CONTINUOUS
 10
112.70000
 20
8.70000
 30
 0
 11
112.70000
 21
35.70000
  0
ARC
  8
Contour
 62
   7
 39
0.100
  6
CONTINUOUS
 10
111.20000
 20
35.70000
 30
 0
 40
1.50000
 50
0.00000
 51
90.00000
  0
LINE
  8
Contour
 62
   7
 39
0.100
  6
CONTINUOUS
 10
111.20000
 20
37.20000
 30
 0
 11
110.70000
 21
37.20000
  0
ARC
  8
Contour
 62
   7
 39
0.100
  6
CONTINUOUS
 10
110.70000
 20
35.70000
 30
 0
 40
1.50000
 50
90.00000
 51
180.00000
  0
LINE
  8
Contour
 62
   7
 39
0.100
  6
CONTINUOUS
 10
109.20000
 20
35.70000
 30
 0
 11
109.20000
 21
8.70000
  0
ARC
  8
Contour
 62
   7
 39
0.100
  6
CONTINUOUS
 10
120.70000
 20
8.70000
 30
 0
 40
1.50000
 50
180.00000
 51
270.00000
  0
LINE
  8
Contour
 62
   7
 39
0.100
  6
CONTINUOUS
 10
120.70000
 20
7.20000
 30
 0
 11
121.20000
 21
7.20000
  0
ARC
  8
Contour
 62
   7
 39
0.100
  6
CONTINUOUS
 10
121.20000
 20
8.70000
 30
 0
 40
1.50000
 50
270.00000
 51
360.00000
  0
LINE
  8
Contour
 62
   7
 39
0.100
  6
CONTINUOUS
 10
122.70000
 20
8.70000
 30
 0
 11
122.70000
 21
35.70000
  0
ARC
  8
Contour
 62
   7
 39
0.100
  6
CONTINUOUS
 10
121.20000
 20
35.70000
 30
 0
 40
1.50000
 50
0.00000
 51
90.00000
  0
LINE
  8
Contour
 62
   7
 39
0.100
  6
CONTINUOUS
 10
121.20000
 20
37.20000
 30
 0
 11
120.70000
 21
37.20000
  0
ARC
  8
Contour
 62
   7
 39
0.100
  6
CONTINUOUS
 10
120.70000
 20
35.70000
 30
 0
 40
1.50000
 50
90.00000
 51
180.00000
  0
LINE
  8
Contour
 62
   7
 39
0.100
  6
CONTINUOUS
 10
119.20000
 20
35.70000
 30
 0
 11
119.20000
 21
8.70000
  0
ARC
  8
Contour
 62
   7
 39
0.100
  6
CONTINUOUS
 10
130.70000
 20
8.70000
 30
 0
 40
1.50000
 50
180.00000
 51
270.00000
  0
LINE
  8
Contour
 62
   7
 39
0.100
  6
CONTINUOUS
 10
130.70000
 20
7.20000
 30
 0
 11
131.20000
 21
7.20000
  0
ARC
  8
Contour
 62
   7
 39
0.100
  6
CONTINUOUS
 10
131.20000
 20
8.70000
 30
 0
 40
1.50000
 50
270.00000
 51
360.00000
  0
LINE
  8
Contour
 62
   7
 39
0.100
  6
CONTINUOUS
 10
132.70000
 20
8.70000
 30
 0
 11
132.70000
 21
35.70000
  0
ARC
  8
Contour
 62
   7
 39
0.100
  6
CONTINUOUS
 10
131.20000
 20
35.70000
 30
 0
 40
1.50000
 50
0.00000
 51
90.00000
  0
LINE
  8
Contour
 62
   7
 39
0.100
  6
CONTINUOUS
 10
131.20000
 20
37.20000
 30
 0
 11
130.70000
 21
37.20000
  0
ARC
  8
Contour
 62
   7
 39
0.100
  6
CONTINUOUS
 10
130.70000
 20
35.70000
 30
 0
 40
1.50000
 50
90.00000
 51
180.00000
  0
LINE
  8
Contour
 62
   7
 39
0.100
  6
CONTINUOUS
 10
129.20000
 20
35.70000
 30
 0
 11
129.20000
 21
8.70000
  0
ARC
  8
Contour
 62
   7
 39
0.100
  6
CONTINUOUS
 10
80.70000
 20
8.70000
 30
 0
 40
1.50000
 50
180.00000
 51
270.00000
  0
LINE
  8
Contour
 62
   7
 39
0.100
  6
CONTINUOUS
 10
80.70000
 20
7.20000
 30
 0
 11
81.20000
 21
7.20000
  0
ARC
  8
Contour
 62
   7
 39
0.100
  6
CONTINUOUS
 10
81.20000
 20
8.70000
 30
 0
 40
1.50000
 50
270.00000
 51
360.00000
  0
LINE
  8
Contour
 62
   7
 39
0.100
  6
CONTINUOUS
 10
82.70000
 20
8.70000
 30
 0
 11
82.70000
 21
35.70000
  0
ARC
  8
Contour
 62
   7
 39
0.100
  6
CONTINUOUS
 10
81.20000
 20
35.70000
 30
 0
 40
1.50000
 50
0.00000
 51
90.00000
  0
LINE
  8
Contour
 62
   7
 39
0.100
  6
CONTINUOUS
 10
81.20000
 20
37.20000
 30
 0
 11
80.70000
 21
37.20000
  0
ARC
  8
Contour
 62
   7
 39
0.100
  6
CONTINUOUS
 10
80.70000
 20
35.70000
 30
 0
 40
1.50000
 50
90.00000
 51
180.00000
  0
LINE
  8
Contour
 62
   7
 39
0.100
  6
CONTINUOUS
 10
79.20000
 20
35.70000
 30
 0
 11
79.20000
 21
8.70000
  0
ARC
  8
Contour
 62
   7
 39
0.100
  6
CONTINUOUS
 10
70.70000
 20
8.70000
 30
 0
 40
1.50000
 50
180.00000
 51
270.00000
  0
LINE
  8
Contour
 62
   7
 39
0.100
  6
CONTINUOUS
 10
70.70000
 20
7.20000
 30
 0
 11
71.20000
 21
7.20000
  0
ARC
  8
Contour
 62
   7
 39
0.100
  6
CONTINUOUS
 10
71.20000
 20
8.70000
 30
 0
 40
1.50000
 50
270.00000
 51
360.00000
  0
LINE
  8
Contour
 62
   7
 39
0.100
  6
CONTINUOUS
 10
72.70000
 20
8.70000
 30
 0
 11
72.70000
 21
35.70000
  0
ARC
  8
Contour
 62
   7
 39
0.100
  6
CONTINUOUS
 10
71.20000
 20
35.70000
 30
 0
 40
1.50000
 50
0.00000
 51
90.00000
  0
LINE
  8
Contour
 62
   7
 39
0.100
  6
CONTINUOUS
 10
71.20000
 20
37.20000
 30
 0
 11
70.70000
 21
37.20000
  0
ARC
  8
Contour
 62
   7
 39
0.100
  6
CONTINUOUS
 10
70.70000
 20
35.70000
 30
 0
 40
1.50000
 50
90.00000
 51
180.00000
  0
LINE
  8
Contour
 62
   7
 39
0.100
  6
CONTINUOUS
 10
69.20000
 20
35.70000
 30
 0
 11
69.20000
 21
8.70000
  0
ARC
  8
Contour
 62
   7
 39
0.100
  6
CONTINUOUS
 10
60.70000
 20
8.70000
 30
 0
 40
1.50000
 50
180.00000
 51
270.00000
  0
LINE
  8
Contour
 62
   7
 39
0.100
  6
CONTINUOUS
 10
60.70000
 20
7.20000
 30
 0
 11
61.20000
 21
7.20000
  0
ARC
  8
Contour
 62
   7
 39
0.100
  6
CONTINUOUS
 10
61.20000
 20
8.70000
 30
 0
 40
1.50000
 50
270.00000
 51
360.00000
  0
LINE
  8
Contour
 62
   7
 39
0.100
  6
CONTINUOUS
 10
62.70000
 20
8.70000
 30
 0
 11
62.70000
 21
35.70000
  0
ARC
  8
Contour
 62
   7
 39
0.100
  6
CONTINUOUS
 10
61.20000
 20
35.70000
 30
 0
 40
1.50000
 50
0.00000
 51
90.00000
  0
LINE
  8
Contour
 62
   7
 39
0.100
  6
CONTINUOUS
 10
61.20000
 20
37.20000
 30
 0
 11
60.70000
 21
37.20000
  0
ARC
  8
Contour
 62
   7
 39
0.100
  6
CONTINUOUS
 10
60.70000
 20
35.70000
 30
 0
 40
1.50000
 50
90.00000
 51
180.00000
  0
LINE
  8
Contour
 62
   7
 39
0.100
  6
CONTINUOUS
 10
59.20000
 20
35.70000
 30
 0
 11
59.20000
 21
8.70000
  0
ARC
  8
Contour
 62
   7
 39
0.100
  6
CONTINUOUS
 10
50.70000
 20
8.70000
 30
 0
 40
1.50000
 50
180.00000
 51
270.00000
  0
LINE
  8
Contour
 62
   7
 39
0.100
  6
CONTINUOUS
 10
50.70000
 20
7.20000
 30
 0
 11
51.20000
 21
7.20000
  0
ARC
  8
Contour
 62
   7
 39
0.100
  6
CONTINUOUS
 10
51.20000
 20
8.70000
 30
 0
 40
1.50000
 50
270.00000
 51
360.00000
  0
LINE
  8
Contour
 62
   7
 39
0.100
  6
CONTINUOUS
 10
52.70000
 20
8.70000
 30
 0
 11
52.70000
 21
35.70000
  0
ARC
  8
Contour
 62
   7
 39
0.100
  6
CONTINUOUS
 10
51.20000
 20
35.70000
 30
 0
 40
1.50000
 50
0.00000
 51
90.00000
  0
LINE
  8
Contour
 62
   7
 39
0.100
  6
CONTINUOUS
 10
51.20000
 20
37.20000
 30
 0
 11
50.70000
 21
37.20000
  0
ARC
  8
Contour
 62
   7
 39
0.100
  6
CONTINUOUS
 10
50.70000
 20
35.70000
 30
 0
 40
1.50000
 50
90.00000
 51
180.00000
  0
LINE
  8
Contour
 62
   7
 39
0.100
  6
CONTINUOUS
 10
49.20000
 20
35.70000
 30
 0
 11
49.20000
 21
8.70000
  0
ARC
  8
Contour
 62
   7
 39
0.100
  6
CONTINUOUS
 10
90.70000
 20
8.70000
 30
 0
 40
1.50000
 50
180.00000
 51
270.00000
  0
LINE
  8
Contour
 62
   7
 39
0.100
  6
CONTINUOUS
 10
90.70000
 20
7.20000
 30
 0
 11
91.20000
 21
7.20000
  0
ARC
  8
Contour
 62
   7
 39
0.100
  6
CONTINUOUS
 10
91.20000
 20
8.70000
 30
 0
 40
1.50000
 50
270.00000
 51
360.00000
  0
LINE
  8
Contour
 62
   7
 39
0.100
  6
CONTINUOUS
 10
92.70000
 20
8.70000
 30
 0
 11
92.70000
 21
35.70000
  0
ARC
  8
Contour
 62
   7
 39
0.100
  6
CONTINUOUS
 10
91.20000
 20
35.70000
 30
 0
 40
1.50000
 50
0.00000
 51
90.00000
  0
LINE
  8
Contour
 62
   7
 39
0.100
  6
CONTINUOUS
 10
91.20000
 20
37.20000
 30
 0
 11
90.70000
 21
37.20000
  0
ARC
  8
Contour
 62
   7
 39
0.100
  6
CONTINUOUS
 10
90.70000
 20
35.70000
 30
 0
 40
1.50000
 50
90.00000
 51
180.00000
  0
LINE
  8
Contour
 62
   7
 39
0.100
  6
CONTINUOUS
 10
89.20000
 20
35.70000
 30
 0
 11
89.20000
 21
8.70000
  0
ARC
  8
Contour
 62
   7
 39
0.100
  6
CONTINUOUS
 10
130.70000
 20
92.70000
 30
 0
 40
1.50000
 50
180.00000
 51
270.00000
  0
LINE
  8
Contour
 62
   7
 39
0.100
  6
CONTINUOUS
 10
130.70000
 20
91.20000
 30
 0
 11
131.20000
 21
91.20000
  0
ARC
  8
Contour
 62
   7
 39
0.100
  6
CONTINUOUS
 10
131.20000
 20
92.70000
 30
 0
 40
1.50000
 50
270.00000
 51
360.00000
  0
LINE
  8
Contour
 62
   7
 39
0.100
  6
CONTINUOUS
 10
132.70000
 20
92.70000
 30
 0
 11
132.70000
 21
119.70000
  0
ARC
  8
Contour
 62
   7
 39
0.100
  6
CONTINUOUS
 10
131.20000
 20
119.70000
 30
 0
 40
1.50000
 50
0.00000
 51
90.00000
  0
LINE
  8
Contour
 62
   7
 39
0.100
  6
CONTINUOUS
 10
131.20000
 20
121.20000
 30
 0
 11
130.70000
 21
121.20000
  0
ARC
  8
Contour
 62
   7
 39
0.100
  6
CONTINUOUS
 10
130.70000
 20
119.70000
 30
 0
 40
1.50000
 50
90.00000
 51
180.00000
  0
LINE
  8
Contour
 62
   7
 39
0.100
  6
CONTINUOUS
 10
129.20000
 20
119.70000
 30
 0
 11
129.20000
 21
92.70000
  0
ARC
  8
Contour
 62
   7
 39
0.100
  6
CONTINUOUS
 10
120.70000
 20
92.70000
 30
 0
 40
1.50000
 50
180.00000
 51
270.00000
  0
LINE
  8
Contour
 62
   7
 39
0.100
  6
CONTINUOUS
 10
120.70000
 20
91.20000
 30
 0
 11
121.20000
 21
91.20000
  0
ARC
  8
Contour
 62
   7
 39
0.100
  6
CONTINUOUS
 10
121.20000
 20
92.70000
 30
 0
 40
1.50000
 50
270.00000
 51
360.00000
  0
LINE
  8
Contour
 62
   7
 39
0.100
  6
CONTINUOUS
 10
122.70000
 20
92.70000
 30
 0
 11
122.70000
 21
119.70000
  0
ARC
  8
Contour
 62
   7
 39
0.100
  6
CONTINUOUS
 10
121.20000
 20
119.70000
 30
 0
 40
1.50000
 50
0.00000
 51
90.00000
  0
LINE
  8
Contour
 62
   7
 39
0.100
  6
CONTINUOUS
 10
121.20000
 20
121.20000
 30
 0
 11
120.70000
 21
121.20000
  0
ARC
  8
Contour
 62
   7
 39
0.100
  6
CONTINUOUS
 10
120.70000
 20
119.70000
 30
 0
 40
1.50000
 50
90.00000
 51
180.00000
  0
LINE
  8
Contour
 62
   7
 39
0.100
  6
CONTINUOUS
 10
119.20000
 20
119.70000
 30
 0
 11
119.20000
 21
92.70000
  0
ARC
  8
Contour
 62
   7
 39
0.100
  6
CONTINUOUS
 10
110.70000
 20
92.70000
 30
 0
 40
1.50000
 50
180.00000
 51
270.00000
  0
LINE
  8
Contour
 62
   7
 39
0.100
  6
CONTINUOUS
 10
110.70000
 20
91.20000
 30
 0
 11
111.20000
 21
91.20000
  0
ARC
  8
Contour
 62
   7
 39
0.100
  6
CONTINUOUS
 10
111.20000
 20
92.70000
 30
 0
 40
1.50000
 50
270.00000
 51
360.00000
  0
LINE
  8
Contour
 62
   7
 39
0.100
  6
CONTINUOUS
 10
112.70000
 20
92.70000
 30
 0
 11
112.70000
 21
119.70000
  0
ARC
  8
Contour
 62
   7
 39
0.100
  6
CONTINUOUS
 10
111.20000
 20
119.70000
 30
 0
 40
1.50000
 50
0.00000
 51
90.00000
  0
LINE
  8
Contour
 62
   7
 39
0.100
  6
CONTINUOUS
 10
111.20000
 20
121.20000
 30
 0
 11
110.70000
 21
121.20000
  0
ARC
  8
Contour
 62
   7
 39
0.100
  6
CONTINUOUS
 10
110.70000
 20
119.70000
 30
 0
 40
1.50000
 50
90.00000
 51
180.00000
  0
LINE
  8
Contour
 62
   7
 39
0.100
  6
CONTINUOUS
 10
109.20000
 20
119.70000
 30
 0
 11
109.20000
 21
92.70000
  0
ARC
  8
Contour
 62
   7
 39
0.100
  6
CONTINUOUS
 10
100.70000
 20
92.70000
 30
 0
 40
1.50000
 50
180.00000
 51
270.00000
  0
LINE
  8
Contour
 62
   7
 39
0.100
  6
CONTINUOUS
 10
100.70000
 20
91.20000
 30
 0
 11
101.20000
 21
91.20000
  0
ARC
  8
Contour
 62
   7
 39
0.100
  6
CONTINUOUS
 10
101.20000
 20
92.70000
 30
 0
 40
1.50000
 50
270.00000
 51
360.00000
  0
LINE
  8
Contour
 62
   7
 39
0.100
  6
CONTINUOUS
 10
102.70000
 20
92.70000
 30
 0
 11
102.70000
 21
119.70000
  0
ARC
  8
Contour
 62
   7
 39
0.100
  6
CONTINUOUS
 10
101.20000
 20
119.70000
 30
 0
 40
1.50000
 50
0.00000
 51
90.00000
  0
LINE
  8
Contour
 62
   7
 39
0.100
  6
CONTINUOUS
 10
101.20000
 20
121.20000
 30
 0
 11
100.70000
 21
121.20000
  0
ARC
  8
Contour
 62
   7
 39
0.100
  6
CONTINUOUS
 10
100.70000
 20
119.70000
 30
 0
 40
1.50000
 50
90.00000
 51
180.00000
  0
LINE
  8
Contour
 62
   7
 39
0.100
  6
CONTINUOUS
 10
99.20000
 20
119.70000
 30
 0
 11
99.20000
 21
92.70000
  0
ARC
  8
Contour
 62
   7
 39
0.100
  6
CONTINUOUS
 10
90.70000
 20
92.70000
 30
 0
 40
1.50000
 50
180.00000
 51
270.00000
  0
LINE
  8
Contour
 62
   7
 39
0.100
  6
CONTINUOUS
 10
90.70000
 20
91.20000
 30
 0
 11
91.20000
 21
91.20000
  0
ARC
  8
Contour
 62
   7
 39
0.100
  6
CONTINUOUS
 10
91.20000
 20
92.70000
 30
 0
 40
1.50000
 50
270.00000
 51
360.00000
  0
LINE
  8
Contour
 62
   7
 39
0.100
  6
CONTINUOUS
 10
92.70000
 20
92.70000
 30
 0
 11
92.70000
 21
119.70000
  0
ARC
  8
Contour
 62
   7
 39
0.100
  6
CONTINUOUS
 10
91.20000
 20
119.70000
 30
 0
 40
1.50000
 50
0.00000
 51
90.00000
  0
LINE
  8
Contour
 62
   7
 39
0.100
  6
CONTINUOUS
 10
91.20000
 20
121.20000
 30
 0
 11
90.70000
 21
121.20000
  0
ARC
  8
Contour
 62
   7
 39
0.100
  6
CONTINUOUS
 10
90.70000
 20
119.70000
 30
 0
 40
1.50000
 50
90.00000
 51
180.00000
  0
LINE
  8
Contour
 62
   7
 39
0.100
  6
CONTINUOUS
 10
89.20000
 20
119.70000
 30
 0
 11
89.20000
 21
92.70000
  0
ARC
  8
Contour
 62
   7
 39
0.100
  6
CONTINUOUS
 10
80.70000
 20
92.70000
 30
 0
 40
1.50000
 50
180.00000
 51
270.00000
  0
LINE
  8
Contour
 62
   7
 39
0.100
  6
CONTINUOUS
 10
80.70000
 20
91.20000
 30
 0
 11
81.20000
 21
91.20000
  0
ARC
  8
Contour
 62
   7
 39
0.100
  6
CONTINUOUS
 10
81.20000
 20
92.70000
 30
 0
 40
1.50000
 50
270.00000
 51
360.00000
  0
LINE
  8
Contour
 62
   7
 39
0.100
  6
CONTINUOUS
 10
82.70000
 20
92.70000
 30
 0
 11
82.70000
 21
119.70000
  0
ARC
  8
Contour
 62
   7
 39
0.100
  6
CONTINUOUS
 10
81.20000
 20
119.70000
 30
 0
 40
1.50000
 50
0.00000
 51
90.00000
  0
LINE
  8
Contour
 62
   7
 39
0.100
  6
CONTINUOUS
 10
81.20000
 20
121.20000
 30
 0
 11
80.70000
 21
121.20000
  0
ARC
  8
Contour
 62
   7
 39
0.100
  6
CONTINUOUS
 10
80.70000
 20
119.70000
 30
 0
 40
1.50000
 50
90.00000
 51
180.00000
  0
LINE
  8
Contour
 62
   7
 39
0.100
  6
CONTINUOUS
 10
79.20000
 20
119.70000
 30
 0
 11
79.20000
 21
92.70000
  0
ARC
  8
Contour
 62
   7
 39
0.100
  6
CONTINUOUS
 10
70.70000
 20
92.70000
 30
 0
 40
1.50000
 50
180.00000
 51
270.00000
  0
LINE
  8
Contour
 62
   7
 39
0.100
  6
CONTINUOUS
 10
70.70000
 20
91.20000
 30
 0
 11
71.20000
 21
91.20000
  0
ARC
  8
Contour
 62
   7
 39
0.100
  6
CONTINUOUS
 10
71.20000
 20
92.70000
 30
 0
 40
1.50000
 50
270.00000
 51
360.00000
  0
LINE
  8
Contour
 62
   7
 39
0.100
  6
CONTINUOUS
 10
72.70000
 20
92.70000
 30
 0
 11
72.70000
 21
119.70000
  0
ARC
  8
Contour
 62
   7
 39
0.100
  6
CONTINUOUS
 10
71.20000
 20
119.70000
 30
 0
 40
1.50000
 50
0.00000
 51
90.00000
  0
LINE
  8
Contour
 62
   7
 39
0.100
  6
CONTINUOUS
 10
71.20000
 20
121.20000
 30
 0
 11
70.70000
 21
121.20000
  0
ARC
  8
Contour
 62
   7
 39
0.100
  6
CONTINUOUS
 10
70.70000
 20
119.70000
 30
 0
 40
1.50000
 50
90.00000
 51
180.00000
  0
LINE
  8
Contour
 62
   7
 39
0.100
  6
CONTINUOUS
 10
69.20000
 20
119.70000
 30
 0
 11
69.20000
 21
92.70000
  0
ARC
  8
Contour
 62
   7
 39
0.100
  6
CONTINUOUS
 10
60.70000
 20
92.70000
 30
 0
 40
1.50000
 50
180.00000
 51
270.00000
  0
LINE
  8
Contour
 62
   7
 39
0.100
  6
CONTINUOUS
 10
60.70000
 20
91.20000
 30
 0
 11
61.20000
 21
91.20000
  0
ARC
  8
Contour
 62
   7
 39
0.100
  6
CONTINUOUS
 10
61.20000
 20
92.70000
 30
 0
 40
1.50000
 50
270.00000
 51
360.00000
  0
LINE
  8
Contour
 62
   7
 39
0.100
  6
CONTINUOUS
 10
62.70000
 20
92.70000
 30
 0
 11
62.70000
 21
119.70000
  0
ARC
  8
Contour
 62
   7
 39
0.100
  6
CONTINUOUS
 10
61.20000
 20
119.70000
 30
 0
 40
1.50000
 50
0.00000
 51
90.00000
  0
LINE
  8
Contour
 62
   7
 39
0.100
  6
CONTINUOUS
 10
61.20000
 20
121.20000
 30
 0
 11
60.70000
 21
121.20000
  0
ARC
  8
Contour
 62
   7
 39
0.100
  6
CONTINUOUS
 10
60.70000
 20
119.70000
 30
 0
 40
1.50000
 50
90.00000
 51
180.00000
  0
LINE
  8
Contour
 62
   7
 39
0.100
  6
CONTINUOUS
 10
59.20000
 20
119.70000
 30
 0
 11
59.20000
 21
92.70000
  0
ARC
  8
Contour
 62
   7
 39
0.100
  6
CONTINUOUS
 10
50.70000
 20
92.70000
 30
 0
 40
1.50000
 50
180.00000
 51
270.00000
  0
LINE
  8
Contour
 62
   7
 39
0.100
  6
CONTINUOUS
 10
50.70000
 20
91.20000
 30
 0
 11
51.20000
 21
91.20000
  0
ARC
  8
Contour
 62
   7
 39
0.100
  6
CONTINUOUS
 10
51.20000
 20
92.70000
 30
 0
 40
1.50000
 50
270.00000
 51
360.00000
  0
LINE
  8
Contour
 62
   7
 39
0.100
  6
CONTINUOUS
 10
52.70000
 20
92.70000
 30
 0
 11
52.70000
 21
119.70000
  0
ARC
  8
Contour
 62
   7
 39
0.100
  6
CONTINUOUS
 10
51.20000
 20
119.70000
 30
 0
 40
1.50000
 50
0.00000
 51
90.00000
  0
LINE
  8
Contour
 62
   7
 39
0.100
  6
CONTINUOUS
 10
51.20000
 20
121.20000
 30
 0
 11
50.70000
 21
121.20000
  0
ARC
  8
Contour
 62
   7
 39
0.100
  6
CONTINUOUS
 10
50.70000
 20
119.70000
 30
 0
 40
1.50000
 50
90.00000
 51
180.00000
  0
LINE
  8
Contour
 62
   7
 39
0.100
  6
CONTINUOUS
 10
49.20000
 20
119.70000
 30
 0
 11
49.20000
 21
92.70000
  0
ARC
  8
Contour
 62
   7
 39
0.100
  6
CONTINUOUS
 10
40.70000
 20
92.70000
 30
 0
 40
1.50000
 50
180.00000
 51
270.00000
  0
LINE
  8
Contour
 62
   7
 39
0.100
  6
CONTINUOUS
 10
40.70000
 20
91.20000
 30
 0
 11
41.20000
 21
91.20000
  0
ARC
  8
Contour
 62
   7
 39
0.100
  6
CONTINUOUS
 10
41.20000
 20
92.70000
 30
 0
 40
1.50000
 50
270.00000
 51
360.00000
  0
LINE
  8
Contour
 62
   7
 39
0.100
  6
CONTINUOUS
 10
42.70000
 20
92.70000
 30
 0
 11
42.70000
 21
119.70000
  0
ARC
  8
Contour
 62
   7
 39
0.100
  6
CONTINUOUS
 10
41.20000
 20
119.70000
 30
 0
 40
1.50000
 50
0.00000
 51
90.00000
  0
LINE
  8
Contour
 62
   7
 39
0.100
  6
CONTINUOUS
 10
41.20000
 20
121.20000
 30
 0
 11
40.70000
 21
121.20000
  0
ARC
  8
Contour
 62
   7
 39
0.100
  6
CONTINUOUS
 10
40.70000
 20
119.70000
 30
 0
 40
1.50000
 50
90.00000
 51
180.00000
  0
LINE
  8
Contour
 62
   7
 39
0.100
  6
CONTINUOUS
 10
39.20000
 20
119.70000
 30
 0
 11
39.20000
 21
92.70000
  0
ARC
  8
Contour
 62
   7
 39
0.100
  6
CONTINUOUS
 10
30.70000
 20
92.70000
 30
 0
 40
1.50000
 50
180.00000
 51
270.00000
  0
LINE
  8
Contour
 62
   7
 39
0.100
  6
CONTINUOUS
 10
30.70000
 20
91.20000
 30
 0
 11
31.20000
 21
91.20000
  0
ARC
  8
Contour
 62
   7
 39
0.100
  6
CONTINUOUS
 10
31.20000
 20
92.70000
 30
 0
 40
1.50000
 50
270.00000
 51
360.00000
  0
LINE
  8
Contour
 62
   7
 39
0.100
  6
CONTINUOUS
 10
32.70000
 20
92.70000
 30
 0
 11
32.70000
 21
119.70000
  0
ARC
  8
Contour
 62
   7
 39
0.100
  6
CONTINUOUS
 10
31.20000
 20
119.70000
 30
 0
 40
1.50000
 50
0.00000
 51
90.00000
  0
LINE
  8
Contour
 62
   7
 39
0.100
  6
CONTINUOUS
 10
31.20000
 20
121.20000
 30
 0
 11
30.70000
 21
121.20000
  0
ARC
  8
Contour
 62
   7
 39
0.100
  6
CONTINUOUS
 10
30.70000
 20
119.70000
 30
 0
 40
1.50000
 50
90.00000
 51
180.00000
  0
LINE
  8
Contour
 62
   7
 39
0.100
  6
CONTINUOUS
 10
29.20000
 20
119.70000
 30
 0
 11
29.20000
 21
92.70000
  0
ARC
  8
Contour
 62
   7
 39
0.100
  6
CONTINUOUS
 10
20.70000
 20
92.70000
 30
 0
 40
1.50000
 50
180.00000
 51
270.00000
  0
LINE
  8
Contour
 62
   7
 39
0.100
  6
CONTINUOUS
 10
20.70000
 20
91.20000
 30
 0
 11
21.20000
 21
91.20000
  0
ARC
  8
Contour
 62
   7
 39
0.100
  6
CONTINUOUS
 10
21.20000
 20
92.70000
 30
 0
 40
1.50000
 50
270.00000
 51
360.00000
  0
LINE
  8
Contour
 62
   7
 39
0.100
  6
CONTINUOUS
 10
22.70000
 20
92.70000
 30
 0
 11
22.70000
 21
119.70000
  0
ARC
  8
Contour
 62
   7
 39
0.100
  6
CONTINUOUS
 10
21.20000
 20
119.70000
 30
 0
 40
1.50000
 50
0.00000
 51
90.00000
  0
LINE
  8
Contour
 62
   7
 39
0.100
  6
CONTINUOUS
 10
21.20000
 20
121.20000
 30
 0
 11
20.70000
 21
121.20000
  0
ARC
  8
Contour
 62
   7
 39
0.100
  6
CONTINUOUS
 10
20.70000
 20
119.70000
 30
 0
 40
1.50000
 50
90.00000
 51
180.00000
  0
LINE
  8
Contour
 62
   7
 39
0.100
  6
CONTINUOUS
 10
19.20000
 20
119.70000
 30
 0
 11
19.20000
 21
92.70000
  0
ARC
  8
Contour
 62
   7
 39
0.100
  6
CONTINUOUS
 10
10.70000
 20
92.70000
 30
 0
 40
1.50000
 50
180.00000
 51
270.00000
  0
LINE
  8
Contour
 62
   7
 39
0.100
  6
CONTINUOUS
 10
10.70000
 20
91.20000
 30
 0
 11
11.20000
 21
91.20000
  0
ARC
  8
Contour
 62
   7
 39
0.100
  6
CONTINUOUS
 10
11.20000
 20
92.70000
 30
 0
 40
1.50000
 50
270.00000
 51
360.00000
  0
LINE
  8
Contour
 62
   7
 39
0.100
  6
CONTINUOUS
 10
12.70000
 20
92.70000
 30
 0
 11
12.70000
 21
119.70000
  0
ARC
  8
Contour
 62
   7
 39
0.100
  6
CONTINUOUS
 10
11.20000
 20
119.70000
 30
 0
 40
1.50000
 50
0.00000
 51
90.00000
  0
LINE
  8
Contour
 62
   7
 39
0.100
  6
CONTINUOUS
 10
11.20000
 20
121.20000
 30
 0
 11
10.70000
 21
121.20000
  0
ARC
  8
Contour
 62
   7
 39
0.100
  6
CONTINUOUS
 10
10.70000
 20
119.70000
 30
 0
 40
1.50000
 50
90.00000
 51
180.00000
  0
LINE
  8
Contour
 62
   7
 39
0.100
  6
CONTINUOUS
 10
9.20000
 20
119.70000
 30
 0
 11
9.20000
 21
92.70000
  0
ARC
  8
Contour
 62
   7
 39
0.100
  6
CONTINUOUS
 10
6.30400
 20
13.35000
 30
 0
 40
1.50000
 50
180.00000
 51
270.00000
  0
LINE
  8
Contour
 62
   7
 39
0.100
  6
CONTINUOUS
 10
6.30400
 20
11.85000
 30
 0
 11
37.59400
 21
11.85000
  0
ARC
  8
Contour
 62
   7
 39
0.100
  6
CONTINUOUS
 10
37.59400
 20
13.35000
 30
 0
 40
1.50000
 50
270.00000
 51
360.00000
  0
LINE
  8
Contour
 62
   7
 39
0.100
  6
CONTINUOUS
 10
39.09400
 20
13.35000
 30
 0
 11
39.09400
 21
31.05000
  0
ARC
  8
Contour
 62
   7
 39
0.100
  6
CONTINUOUS
 10
37.59400
 20
31.05000
 30
 0
 40
1.50000
 50
0.00000
 51
90.00000
  0
LINE
  8
Contour
 62
   7
 39
0.100
  6
CONTINUOUS
 10
37.59400
 20
32.55000
 30
 0
 11
6.30400
 21
32.55000
  0
ARC
  8
Contour
 62
   7
 39
0.100
  6
CONTINUOUS
 10
6.30400
 20
31.05000
 30
 0
 40
1.50000
 50
90.00000
 51
180.00000
  0
LINE
  8
Contour
 62
   7
 39
0.100
  6
CONTINUOUS
 10
4.80400
 20
31.05000
 30
 0
 11
4.80400
 21
13.35000
  0
CIRCLE
  8
Contour
 62
   7
 39
0.100
  6
CONTINUOUS
 10
21.95000
 20
64.20000
 30
 0
 40
13.00000
  0
LINE
  8
Reference_points
 62
   1
 39
0.100
  6
CONTINUOUS
 10
-1.21100
 20
0.00000
 30
 0
 11
1.21100
 21
0.00000
  0
LINE
  8
Reference_points
 62
   1
 39
0.100
  6
CONTINUOUS
 10
0.00000
 20
-1.21100
 30
 0
 11
0.00000
 21
1.21100
  0
LINE
  8
Reference_points
 62
   1
 39
0.100
  6
CONTINUOUS
 10
6.23900
 20
125.40000
 30
 0
 11
8.66100
 21
125.40000
  0
LINE
  8
Reference_points
 62
   1
 39
0.100
  6
CONTINUOUS
 10
7.45000
 20
124.18900
 30
 0
 11
7.45000
 21
126.61100
  0
LINE
  8
Reference_points
 62
   1
 39
0.100
  6
CONTINUOUS
 10
133.23900
 20
125.40000
 30
 0
 11
135.66100
 21
125.40000
  0
LINE
  8
Reference_points
 62
   1
 39
0.100
  6
CONTINUOUS
 10
134.45000
 20
124.18900
 30
 0
 11
134.45000
 21
126.61100
  0
LINE
  8
Reference_points
 62
   1
 39
0.100
  6
CONTINUOUS
 10
6.23900
 20
3.00000
 30
 0
 11
8.66100
 21
3.00000
  0
LINE
  8
Reference_points
 62
   1
 39
0.100
  6
CONTINUOUS
 10
7.45000
 20
1.78900
 30
 0
 11
7.45000
 21
4.21100
  0
LINE
  8
Reference_points
 62
   1
 39
0.100
  6
CONTINUOUS
 10
133.23900
 20
3.00000
 30
 0
 11
135.66100
 21
3.00000
  0
LINE
  8
Reference_points
 62
   1
 39
0.100
  6
CONTINUOUS
 10
134.45000
 20
1.78900
 30
 0
 11
134.45000
 21
4.21100
  0
LINE
  8
Reference_points
 62
   1
 39
0.100
  6
CONTINUOUS
 10
99.73900
 20
22.20000
 30
 0
 11
102.16100
 21
22.20000
  0
LINE
  8
Reference_points
 62
   1
 39
0.100
  6
CONTINUOUS
 10
100.95000
 20
20.98900
 30
 0
 11
100.95000
 21
23.41100
  0
LINE
  8
Reference_points
 62
   1
 39
0.100
  6
CONTINUOUS
 10
109.73900
 20
22.20000
 30
 0
 11
112.16100
 21
22.20000
  0
LINE
  8
Reference_points
 62
   1
 39
0.100
  6
CONTINUOUS
 10
110.95000
 20
20.98900
 30
 0
 11
110.95000
 21
23.41100
  0
LINE
  8
Reference_points
 62
   1
 39
0.100
  6
CONTINUOUS
 10
119.73900
 20
22.20000
 30
 0
 11
122.16100
 21
22.20000
  0
LINE
  8
Reference_points
 62
   1
 39
0.100
  6
CONTINUOUS
 10
120.95000
 20
20.98900
 30
 0
 11
120.95000
 21
23.41100
  0
LINE
  8
Reference_points
 62
   1
 39
0.100
  6
CONTINUOUS
 10
129.73900
 20
22.20000
 30
 0
 11
132.16100
 21
22.20000
  0
LINE
  8
Reference_points
 62
   1
 39
0.100
  6
CONTINUOUS
 10
130.95000
 20
20.98900
 30
 0
 11
130.95000
 21
23.41100
  0
LINE
  8
Reference_points
 62
   1
 39
0.100
  6
CONTINUOUS
 10
79.73900
 20
22.20000
 30
 0
 11
82.16100
 21
22.20000
  0
LINE
  8
Reference_points
 62
   1
 39
0.100
  6
CONTINUOUS
 10
80.95000
 20
20.98900
 30
 0
 11
80.95000
 21
23.41100
  0
LINE
  8
Reference_points
 62
   1
 39
0.100
  6
CONTINUOUS
 10
69.73900
 20
22.20000
 30
 0
 11
72.16100
 21
22.20000
  0
LINE
  8
Reference_points
 62
   1
 39
0.100
  6
CONTINUOUS
 10
70.95000
 20
20.98900
 30
 0
 11
70.95000
 21
23.41100
  0
LINE
  8
Reference_points
 62
   1
 39
0.100
  6
CONTINUOUS
 10
59.73900
 20
22.20000
 30
 0
 11
62.16100
 21
22.20000
  0
LINE
  8
Reference_points
 62
   1
 39
0.100
  6
CONTINUOUS
 10
60.95000
 20
20.98900
 30
 0
 11
60.95000
 21
23.41100
  0
LINE
  8
Reference_points
 62
   1
 39
0.100
  6
CONTINUOUS
 10
49.73900
 20
22.20000
 30
 0
 11
52.16100
 21
22.20000
  0
LINE
  8
Reference_points
 62
   1
 39
0.100
  6
CONTINUOUS
 10
50.95000
 20
20.98900
 30
 0
 11
50.95000
 21
23.41100
  0
LINE
  8
Reference_points
 62
   1
 39
0.100
  6
CONTINUOUS
 10
89.73900
 20
22.20000
 30
 0
 11
92.16100
 21
22.20000
  0
LINE
  8
Reference_points
 62
   1
 39
0.100
  6
CONTINUOUS
 10
90.95000
 20
20.98900
 30
 0
 11
90.95000
 21
23.41100
  0
LINE
  8
Reference_points
 62
   1
 39
0.100
  6
CONTINUOUS
 10
129.73900
 20
106.20000
 30
 0
 11
132.16100
 21
106.20000
  0
LINE
  8
Reference_points
 62
   1
 39
0.100
  6
CONTINUOUS
 10
130.95000
 20
104.98900
 30
 0
 11
130.95000
 21
107.41100
  0
LINE
  8
Reference_points
 62
   1
 39
0.100
  6
CONTINUOUS
 10
119.73900
 20
106.20000
 30
 0
 11
122.16100
 21
106.20000
  0
LINE
  8
Reference_points
 62
   1
 39
0.100
  6
CONTINUOUS
 10
120.95000
 20
104.98900
 30
 0
 11
120.95000
 21
107.41100
  0
LINE
  8
Reference_points
 62
   1
 39
0.100
  6
CONTINUOUS
 10
109.73900
 20
106.20000
 30
 0
 11
112.16100
 21
106.20000
  0
LINE
  8
Reference_points
 62
   1
 39
0.100
  6
CONTINUOUS
 10
110.95000
 20
104.98900
 30
 0
 11
110.95000
 21
107.41100
  0
LINE
  8
Reference_points
 62
   1
 39
0.100
  6
CONTINUOUS
 10
99.73900
 20
106.20000
 30
 0
 11
102.16100
 21
106.20000
  0
LINE
  8
Reference_points
 62
   1
 39
0.100
  6
CONTINUOUS
 10
100.95000
 20
104.98900
 30
 0
 11
100.95000
 21
107.41100
  0
LINE
  8
Reference_points
 62
   1
 39
0.100
  6
CONTINUOUS
 10
89.73900
 20
106.20000
 30
 0
 11
92.16100
 21
106.20000
  0
LINE
  8
Reference_points
 62
   1
 39
0.100
  6
CONTINUOUS
 10
90.95000
 20
104.98900
 30
 0
 11
90.95000
 21
107.41100
  0
LINE
  8
Reference_points
 62
   1
 39
0.100
  6
CONTINUOUS
 10
79.73900
 20
106.20000
 30
 0
 11
82.16100
 21
106.20000
  0
LINE
  8
Reference_points
 62
   1
 39
0.100
  6
CONTINUOUS
 10
80.95000
 20
104.98900
 30
 0
 11
80.95000
 21
107.41100
  0
LINE
  8
Reference_points
 62
   1
 39
0.100
  6
CONTINUOUS
 10
69.73900
 20
106.20000
 30
 0
 11
72.16100
 21
106.20000
  0
LINE
  8
Reference_points
 62
   1
 39
0.100
  6
CONTINUOUS
 10
70.95000
 20
104.98900
 30
 0
 11
70.95000
 21
107.41100
  0
LINE
  8
Reference_points
 62
   1
 39
0.100
  6
CONTINUOUS
 10
59.73900
 20
106.20000
 30
 0
 11
62.16100
 21
106.20000
  0
LINE
  8
Reference_points
 62
   1
 39
0.100
  6
CONTINUOUS
 10
60.95000
 20
104.98900
 30
 0
 11
60.95000
 21
107.41100
  0
LINE
  8
Reference_points
 62
   1
 39
0.100
  6
CONTINUOUS
 10
49.73900
 20
106.20000
 30
 0
 11
52.16100
 21
106.20000
  0
LINE
  8
Reference_points
 62
   1
 39
0.100
  6
CONTINUOUS
 10
50.95000
 20
104.98900
 30
 0
 11
50.95000
 21
107.41100
  0
LINE
  8
Reference_points
 62
   1
 39
0.100
  6
CONTINUOUS
 10
39.73900
 20
106.20000
 30
 0
 11
42.16100
 21
106.20000
  0
LINE
  8
Reference_points
 62
   1
 39
0.100
  6
CONTINUOUS
 10
40.95000
 20
104.98900
 30
 0
 11
40.95000
 21
107.41100
  0
LINE
  8
Reference_points
 62
   1
 39
0.100
  6
CONTINUOUS
 10
29.73900
 20
106.20000
 30
 0
 11
32.16100
 21
106.20000
  0
LINE
  8
Reference_points
 62
   1
 39
0.100
  6
CONTINUOUS
 10
30.95000
 20
104.98900
 30
 0
 11
30.95000
 21
107.41100
  0
LINE
  8
Reference_points
 62
   1
 39
0.100
  6
CONTINUOUS
 10
19.73900
 20
106.20000
 30
 0
 11
22.16100
 21
106.20000
  0
LINE
  8
Reference_points
 62
   1
 39
0.100
  6
CONTINUOUS
 10
20.95000
 20
104.98900
 30
 0
 11
20.95000
 21
107.41100
  0
LINE
  8
Reference_points
 62
   1
 39
0.100
  6
CONTINUOUS
 10
9.73900
 20
106.20000
 30
 0
 11
12.16100
 21
106.20000
  0
LINE
  8
Reference_points
 62
   1
 39
0.100
  6
CONTINUOUS
 10
10.95000
 20
104.98900
 30
 0
 11
10.95000
 21
107.41100
  0
LINE
  8
Reference_points
 62
   1
 39
0.100
  6
CONTINUOUS
 10
40.11400
 20
41.97500
 30
 0
 11
42.53600
 21
41.97500
  0
LINE
  8
Reference_points
 62
   1
 39
0.100
  6
CONTINUOUS
 10
41.32500
 20
40.76400
 30
 0
 11
41.32500
 21
43.18600
  0
LINE
  8
Reference_points
 62
   1
 39
0.100
  6
CONTINUOUS
 10
40.11400
 20
86.42500
 30
 0
 11
42.53600
 21
86.42500
  0
LINE
  8
Reference_points
 62
   1
 39
0.100
  6
CONTINUOUS
 10
41.32500
 20
85.21400
 30
 0
 11
41.32500
 21
87.63600
  0
LINE
  8
Reference_points
 62
   1
 39
0.100
  6
CONTINUOUS
 10
135.36400
 20
86.42500
 30
 0
 11
137.78600
 21
86.42500
  0
LINE
  8
Reference_points
 62
   1
 39
0.100
  6
CONTINUOUS
 10
136.57500
 20
85.21400
 30
 0
 11
136.57500
 21
87.63600
  0
LINE
  8
Reference_points
 62
   1
 39
0.100
  6
CONTINUOUS
 10
135.36400
 20
41.97500
 30
 0
 11
137.78600
 21
41.97500
  0
LINE
  8
Reference_points
 62
   1
 39
0.100
  6
CONTINUOUS
 10
136.57500
 20
40.76400
 30
 0
 11
136.57500
 21
43.18600
  0
LINE
  8
Reference_points
 62
   1
 39
0.100
  6
CONTINUOUS
 10
87.73900
 20
64.20000
 30
 0
 11
90.16100
 21
64.20000
  0
LINE
  8
Reference_points
 62
   1
 39
0.100
  6
CONTINUOUS
 10
88.95000
 20
62.98900
 30
 0
 11
88.95000
 21
65.41100
  0
LINE
  8
Reference_points
 62
   1
 39
0.100
  6
CONTINUOUS
 10
20.73800
 20
22.20000
 30
 0
 11
23.16000
 21
22.20000
  0
LINE
  8
Reference_points
 62
   1
 39
0.100
  6
CONTINUOUS
 10
21.94900
 20
20.98900
 30
 0
 11
21.94900
 21
23.41100
  0
LINE
  8
Reference_points
 62
   1
 39
0.100
  6
CONTINUOUS
 10
20.73900
 20
22.20000
 30
 0
 11
23.16100
 21
22.20000
  0
LINE
  8
Reference_points
 62
   1
 39
0.100
  6
CONTINUOUS
 10
21.95000
 20
20.98900
 30
 0
 11
21.95000
 21
23.41100
  0
LINE
  8
Reference_points
 62
   1
 39
0.100
  6
CONTINUOUS
 10
20.73900
 20
22.20000
 30
 0
 11
23.16100
 21
22.20000
  0
LINE
  8
Reference_points
 62
   1
 39
0.100
  6
CONTINUOUS
 10
21.95000
 20
20.98900
 30
 0
 11
21.95000
 21
23.41100
  0
LINE
  8
Reference_points
 62
   1
 39
0.100
  6
CONTINUOUS
 10
20.73900
 20
64.20000
 30
 0
 11
23.16100
 21
64.20000
  0
LINE
  8
Reference_points
 62
   1
 39
0.100
  6
CONTINUOUS
 10
21.95000
 20
62.98900
 30
 0
 11
21.95000
 21
65.41100
  0
ENDSEC
  0
EOF
